<?xml version="1.0" encoding="utf-8"?>
<!-- Generator: Adobe Illustrator 17.1.0, SVG Export Plug-In . SVG Version: 6.00 Build 0)  -->
<!DOCTYPE svg PUBLIC "-//W3C//DTD SVG 1.1//EN" "http://www.w3.org/Graphics/SVG/1.1/DTD/svg11.dtd">
<svg version="1.1" id="Layer_1" xmlns="http://www.w3.org/2000/svg" xmlns:xlink="http://www.w3.org/1999/xlink" x="0px" y="0px"
	 viewBox="0 0 72 72" enable-background="new 0 0 72 72" xml:space="preserve">
<path fill="#FFFFFF" d="M71.2,58.8L41.3,7.1C40.2,5.2,38.2,4,36,4c-2.2,0-4.2,1.2-5.3,3.1L0.8,58.8c-1.1,1.9-1.1,4.2,0,6.1
	C1.9,66.8,4,68,6.1,68h59.7c2.2,0,4.2-1.2,5.3-3.1C72.3,63,72.3,60.7,71.2,58.8z M32,22.2c0-2.2,1.8-4,4-4c2.2,0,4,1.8,4,4v22
	c0,2.2-1.8,4-4,4c-2.2,0-4-1.8-4-4V22.2z M36,61.8c-2.6,0-4.7-2.1-4.7-4.7s2.1-4.7,4.7-4.7c2.6,0,4.7,2.1,4.7,4.7S38.6,61.8,36,61.8
	z"/>
</svg>
