<?xml version="1.0" encoding="iso-8859-1"?>
<!-- Generator: Adobe Illustrator 16.0.3, SVG Export Plug-In . SVG Version: 6.00 Build 0)  -->
<!DOCTYPE svg PUBLIC "-//W3C//DTD SVG 1.1//EN" "http://www.w3.org/Graphics/SVG/1.1/DTD/svg11.dtd">
<svg version="1.1" xmlns="http://www.w3.org/2000/svg" xmlns:xlink="http://www.w3.org/1999/xlink" x="0px" y="0px" width="2880px"
	 height="1600px" viewBox="0 0 2880 1600" style="enable-background:new 0 0 2880 1600;" xml:space="preserve">
<g id="Layer_2">
</g>
<g id="Isolation_Mode">
	<g>
		<path style="fill:#A5C9ED;" d="M164.282,640.557c-87.575,0-158.586,70.989-158.586,158.588c0,87.6,71.011,158.587,158.586,158.587
			c87.575,0,158.589-70.987,158.589-158.587C322.871,711.546,251.856,640.557,164.282,640.557z"/>
		<path style="fill:#A5C9ED;" d="M894.441,640.557c-87.575,0-158.589,70.989-158.589,158.588c0,87.6,71.015,158.587,158.589,158.587
			c87.599,0,158.586-70.987,158.586-158.587C1053.027,711.546,982.04,640.557,894.441,640.557z"/>
		<path style="fill:#A5C9ED;" d="M1627.312,640.557c-87.575,0-158.589,70.989-158.589,158.588
			c0,87.6,71.014,158.587,158.589,158.587c87.574,0,158.587-70.987,158.587-158.587
			C1785.898,711.546,1714.886,640.557,1627.312,640.557z"/>
		<path style="fill:#A5C9ED;" d="M2859.596,769.184c-13.968-11.899-508.408-507.459-508.408-507.459l-2.142,379.5
			c-81.294,6.806-145.216,74.843-145.216,157.921c0,82.483,62.969,150.187,143.429,157.826l-2.165,383.069
			c0,0,502.605-502.605,518.882-519.859C2880.277,802.93,2873.592,781.083,2859.596,769.184z"/>
	</g>
</g>
</svg>
