<?xml version="1.0" encoding="utf-8"?>
<!-- Generator: Adobe Illustrator 17.1.0, SVG Export Plug-In . SVG Version: 6.00 Build 0)  -->
<!DOCTYPE svg PUBLIC "-//W3C//DTD SVG 1.1//EN" "http://www.w3.org/Graphics/SVG/1.1/DTD/svg11.dtd">
<svg version="1.1" id="Layer_1" xmlns="http://www.w3.org/2000/svg" xmlns:xlink="http://www.w3.org/1999/xlink" x="0px" y="0px"
	 viewBox="0 0 72 72" enable-background="new 0 0 72 72" xml:space="preserve">
<path fill="#CF3694" d="M36,0C16.1,0,0,16.1,0,36s16.1,36,36,36s36-16.1,36-36S55.9,0,36,0z M50.4,35.8l-2.9-5.1l-4.6,19.9l4.6-14
	v19.2H36.2H24.9V36.5l4.6,14l-4.6-19.9L22,35.7L14.3,32l6.2-11.8L23,26l2.1,2l-3.8-8.8l9.2-2.9c0,0,1.4,2.5,5.6,2.5
	c4.2,0,5.6-2.5,5.6-2.5l9.2,2.9L47.1,28l2.3-2l2.5-5.8l6.2,11.9L50.4,35.8z"/>
</svg>
