<?xml version="1.0" encoding="utf-8"?>
<!-- Generator: Adobe Illustrator 17.1.0, SVG Export Plug-In . SVG Version: 6.00 Build 0)  -->
<!DOCTYPE svg PUBLIC "-//W3C//DTD SVG 1.1//EN" "http://www.w3.org/Graphics/SVG/1.1/DTD/svg11.dtd">
<svg version="1.1" id="Layer_1" xmlns="http://www.w3.org/2000/svg" xmlns:xlink="http://www.w3.org/1999/xlink" x="0px" y="0px"
	 viewBox="0 0 72 72" enable-background="new 0 0 72 72" xml:space="preserve">
<path fill="#4284C5" d="M36,0C16.1,0,0,16.1,0,36s16.1,36,36,36s36-16.1,36-36S55.9,0,36,0z M40.6,53.2l11.1,2.4v2.5H24.8v-2.5
	l11.1-2.4v-9.1h-7.3c-2,0-3.8-1.4-4.3-3.3l-5.9-21.3c-0.7-2.4,0.7-4.8,3.1-5.5s4.8,0.7,5.5,3.1l4.9,18h15.5c2.5,0,4.5,2,4.5,4.5
	s-2,4.5-4.5,4.5h-6.9L40.6,53.2z"/>
</svg>
