<?xml version="1.0" encoding="utf-8"?>
<!-- Generator: Adobe Illustrator 17.1.0, SVG Export Plug-In . SVG Version: 6.00 Build 0)  -->
<!DOCTYPE svg PUBLIC "-//W3C//DTD SVG 1.1//EN" "http://www.w3.org/Graphics/SVG/1.1/DTD/svg11.dtd">
<svg version="1.1" xmlns="http://www.w3.org/2000/svg" xmlns:xlink="http://www.w3.org/1999/xlink" x="0px" y="0px"
	 viewBox="0 0 72 72" enable-background="new 0 0 72 72" xml:space="preserve">
<g id="Layer_1">
	<g>
		<path fill="#333333" d="M36,4c17.6,0,32,14.4,32,32S53.6,68,36,68S4,53.6,4,36S18.4,4,36,4 M36,0C16.1,0,0,16.1,0,36
			s16.1,36,36,36s36-16.1,36-36S55.9,0,36,0L36,0z"/>
	</g>
</g>
<g id="Layer_2">
	<g>
		<path fill="#FBB317" d="M36,7.2C20.1,7.2,7.2,20.1,7.2,36S20.1,64.8,36,64.8S64.8,51.9,64.8,36S51.9,7.2,36,7.2z"/>
		<path fill="#FFFFFF" d="M30.8,35c5.2,0,9.4,2.4,9.4,5.4c0,0.2,0,0.3-0.1,0.5H21.4c0-0.2-0.1-0.3-0.1-0.5
			C21.4,37.4,25.6,35,30.8,35z"/>
		<path fill="#FFFFFF" d="M30.8,50.2c-5.2,0-9.4-0.7-9.4-3.8c0-0.2,0-0.3,0.1-0.5h18.8c0,0.2,0.1,0.3,0.1,0.5
			C40.2,49.4,36.1,50.2,30.8,50.2z"/>
		<path fill="#FFFFFF" d="M20.9,44.9c-0.8,0-1.4-0.6-1.4-1.4s0.6-1.4,1.4-1.4h19.8c0.8,0,1.4,0.6,1.4,1.4s-0.6,1.4-1.4,1.4H20.9z"/>
		<path fill="#FFFFFF" d="M47.8,49.4h-6.6c0.7-0.7,1.1-1.7,1.1-3c1.1-0.6,1.9-1.7,1.9-3s-0.8-2.5-1.9-3l0,0c0-3.5-3.6-6.3-8.6-7.1
			l-0.2-3.4h15.8L47.8,49.4z"/>
		<path fill="#FFFFFF" d="M49.8,27.9h-17v-2.2h7.4l1.1-5.5c0.1-0.5,0.5-0.8,1-0.8h4.2c0.6,0,1,0.5,1,1c0,0.6-0.5,1-1,1H43l-0.9,4.3
			h7.6V27.9z"/>
	</g>
</g>
</svg>
