<?xml version="1.0" encoding="utf-8"?>
<!-- Generator: Adobe Illustrator 16.0.0, SVG Export Plug-In . SVG Version: 6.00 Build 0)  -->
<!DOCTYPE svg PUBLIC "-//W3C//DTD SVG 1.1//EN" "http://www.w3.org/Graphics/SVG/1.1/DTD/svg11.dtd">
<svg version="1.1" id="Layer_1" xmlns="http://www.w3.org/2000/svg" xmlns:xlink="http://www.w3.org/1999/xlink" x="0px" y="0px"
	 width="512.47px" height="512.471px" viewBox="0 0 512.47 512.471" enable-background="new 0 0 512.47 512.471"
	 xml:space="preserve">
<path fill="#565756" d="M256.235,28.471C381.506,28.471,484,130.965,484,256.235S381.506,484,256.235,484
	S28.471,381.506,28.471,256.235S130.965,28.471,256.235,28.471 M256.235,0C114.594,0,0,114.594,0,256.235
	c0,141.642,114.594,256.235,256.235,256.235c141.641,0,256.234-114.594,256.234-256.235C512.47,114.594,397.876,0,256.235,0
	L256.235,0z"/>
<g id="Layer_2">
	<g>
		<path fill="#565756" d="M227.053,143.065c0-16.371,12.812-29.183,29.183-29.183c16.37,0,29.182,12.812,29.182,29.183
			s-12.812,29.182-29.182,29.182C239.864,172.247,227.053,159.436,227.053,143.065z M227.053,256.235
			c0-16.371,12.812-29.182,29.183-29.182c16.37,0,29.182,12.812,29.182,29.182c0,16.371-12.812,29.183-29.182,29.183
			C239.864,285.418,227.053,272.606,227.053,256.235z M227.053,369.406c0-16.371,12.812-29.183,29.183-29.183
			c16.37,0,29.182,12.812,29.182,29.183c0,16.37-12.812,29.182-29.182,29.182C239.864,398.588,227.053,385.776,227.053,369.406z"/>
	</g>
</g>
</svg>