<?xml version="1.0" encoding="utf-8"?>
<!-- Generator: Adobe Illustrator 17.1.0, SVG Export Plug-In . SVG Version: 6.00 Build 0)  -->
<!DOCTYPE svg PUBLIC "-//W3C//DTD SVG 1.1//EN" "http://www.w3.org/Graphics/SVG/1.1/DTD/svg11.dtd">
<svg version="1.1" id="Layer_2" xmlns="http://www.w3.org/2000/svg" xmlns:xlink="http://www.w3.org/1999/xlink" x="0px" y="0px"
	 viewBox="0 0 72 72" enable-background="new 0 0 72 72" xml:space="preserve">
<path fill="#FCB315" d="M36,0C16.1,0,0,16.1,0,36s16.1,36,36,36s36-16.1,36-36S55.9,0,36,0z M29.5,34.7c6.5,0,11.8,3,11.8,6.7
	c0,0.2,0,0.4-0.1,0.6H17.8c0-0.2-0.1-0.4-0.1-0.6C17.7,37.8,23,34.7,29.5,34.7z M29.5,53.7c-6.5,0-11.8-0.9-11.8-4.7
	c0-0.2,0-0.4,0.1-0.6h23.5c0,0.2,0.1,0.4,0.1,0.6C41.3,52.7,36.1,53.7,29.5,53.7z M17.1,47.1c-1,0-1.8-0.8-1.8-1.8s0.8-1.8,1.8-1.8
	h24.8c1,0,1.8,0.8,1.8,1.8s-0.8,1.8-1.8,1.8H17.1z M50.7,52.8h-8.3c0.9-0.9,1.4-2.1,1.4-3.7c1.4-0.7,2.4-2.1,2.4-3.8s-1-3.1-2.4-3.8
	c0-4.4-4.5-7.9-10.7-8.9l-0.3-4.3h19.7L50.7,52.8z M53.2,25.9H31.9v-2.8h9.2l1.4-6.9c0.1-0.6,0.6-1,1.3-1h5.3c0.7,0,1.3,0.6,1.3,1.3
	s-0.6,1.3-1.3,1.3h-4.3l-1.1,5.4h9.5V25.9z"/>
</svg>
