<?xml version="1.0" encoding="utf-8"?>
<!-- Generator: Adobe Illustrator 17.1.0, SVG Export Plug-In . SVG Version: 6.00 Build 0)  -->
<!DOCTYPE svg PUBLIC "-//W3C//DTD SVG 1.1//EN" "http://www.w3.org/Graphics/SVG/1.1/DTD/svg11.dtd">
<svg version="1.1" id="Layer_1" xmlns="http://www.w3.org/2000/svg" xmlns:xlink="http://www.w3.org/1999/xlink" x="0px" y="0px"
	 viewBox="0 0 72 72" enable-background="new 0 0 72 72" xml:space="preserve">
<g>
	<path fill="#555655" d="M36,0C16.1,0,0,16.1,0,36s16.1,36,36,36c19.9,0,36-16.1,36-36S55.9,0,36,0z"/>
	<g>
		<path fill="#FFFFFF" d="M57.6,25.2H45.5v-0.9c0-2-1.6-3.6-3.6-3.6H37c-2,0-3.6,1.6-3.6,3.6v12.4l-7.8,7.8h-6.5
			c-4.1,0-7.4,3.3-7.4,7.4v0.2c0,4.1,3.3,7.4,7.4,7.4h12.7l19.3-19.3h6.5c4.1,0,7.4-3.3,7.4-7.4v-0.2C65,28.6,61.7,25.2,57.6,25.2z
			 M60.6,32.8c0,1.7-1.4,3-3,3h-8.3L30,55.2H19.1c-1.7,0-3-1.4-3-3V52c0-1.7,1.4-3,3-3h8.3l19.3-19.3h10.9c1.7,0,3,1.4,3,3V32.8z"/>
		<circle fill="#FFFFFF" cx="39.4" cy="15.1" r="3.9"/>
	</g>
</g>
</svg>
