<?xml version="1.0" encoding="utf-8"?>
<!-- Generator: Adobe Illustrator 17.1.0, SVG Export Plug-In . SVG Version: 6.00 Build 0)  -->
<!DOCTYPE svg PUBLIC "-//W3C//DTD SVG 1.1//EN" "http://www.w3.org/Graphics/SVG/1.1/DTD/svg11.dtd">
<svg version="1.1" id="Layer_1" xmlns="http://www.w3.org/2000/svg" xmlns:xlink="http://www.w3.org/1999/xlink" x="0px" y="0px"
	 viewBox="0 0 72 72" enable-background="new 0 0 72 72" xml:space="preserve">
<g>
	<circle fill="#555655" cx="36" cy="36" r="36"/>
	<g>
		<path fill="#FFFFFF" d="M52.9,16.2H19.1c-2.3,0-4.2,1.9-4.2,4.2v31.3c0,2.3,1.9,4.2,4.2,4.2h33.8c2.3,0,4.2-1.9,4.2-4.2V20.4
			C57.1,18,55.2,16.2,52.9,16.2z M54.4,49.7c0,2-1.6,3.7-3.7,3.7H21.2c-2,0-3.7-1.6-3.7-3.7V29.9c0-2,1.6-3.7,3.7-3.7h29.5
			c2,0,3.7,1.6,3.7,3.7V49.7z"/>
		<path fill="#FFFFFF" d="M22.4,33.1h-2.8c-0.3,0-0.6,0.2-0.6,0.6v2.8c0,0.3,0.2,0.6,0.6,0.6h2.8c0.3,0,0.6-0.2,0.6-0.6v-2.8
			C23,33.3,22.7,33.1,22.4,33.1z"/>
		<path fill="#FFFFFF" d="M27.4,33.1h-2.8c-0.3,0-0.6,0.2-0.6,0.6v2.8c0,0.3,0.2,0.6,0.6,0.6h2.8c0.3,0,0.6-0.2,0.6-0.6v-2.8
			C28,33.3,27.7,33.1,27.4,33.1z"/>
		<path fill="#FFFFFF" d="M32.4,33.1h-2.8c-0.3,0-0.6,0.2-0.6,0.6v2.8c0,0.3,0.2,0.6,0.6,0.6h2.8c0.3,0,0.6-0.2,0.6-0.6v-2.8
			C33,33.3,32.7,33.1,32.4,33.1z"/>
		<path fill="#FFFFFF" d="M37.4,33.1h-2.8c-0.3,0-0.6,0.2-0.6,0.6v2.8c0,0.3,0.2,0.6,0.6,0.6h2.8c0.3,0,0.6-0.2,0.6-0.6v-2.8
			C38,33.3,37.7,33.1,37.4,33.1z"/>
		<path fill="#FFFFFF" d="M42.4,33.1h-2.8c-0.3,0-0.6,0.2-0.6,0.6v2.8c0,0.3,0.2,0.6,0.6,0.6h2.8c0.3,0,0.6-0.2,0.6-0.6v-2.8
			C43,33.3,42.7,33.1,42.4,33.1z"/>
		<path fill="#FFFFFF" d="M47.4,33.1h-2.8c-0.3,0-0.6,0.2-0.6,0.6v2.8c0,0.3,0.2,0.6,0.6,0.6h2.8c0.3,0,0.6-0.2,0.6-0.6v-2.8
			C47.9,33.3,47.7,33.1,47.4,33.1z"/>
		<path fill="#FFFFFF" d="M52.4,33.1h-2.8c-0.3,0-0.6,0.2-0.6,0.6v2.8c0,0.3,0.2,0.6,0.6,0.6h2.8c0.3,0,0.6-0.2,0.6-0.6v-2.8
			C52.9,33.3,52.7,33.1,52.4,33.1z"/>
		<path fill="#FFFFFF" d="M22.4,38h-2.8c-0.3,0-0.6,0.2-0.6,0.6v2.8c0,0.3,0.2,0.6,0.6,0.6h2.8c0.3,0,0.6-0.2,0.6-0.6v-2.8
			C23,38.3,22.7,38,22.4,38z"/>
		<path fill="#FFFFFF" d="M27.4,38h-2.8c-0.3,0-0.6,0.2-0.6,0.6v2.8c0,0.3,0.2,0.6,0.6,0.6h2.8c0.3,0,0.6-0.2,0.6-0.6v-2.8
			C28,38.3,27.7,38,27.4,38z"/>
		<path fill="#FFFFFF" d="M32.4,38h-2.8c-0.3,0-0.6,0.2-0.6,0.6v2.8c0,0.3,0.2,0.6,0.6,0.6h2.8c0.3,0,0.6-0.2,0.6-0.6v-2.8
			C33,38.3,32.7,38,32.4,38z"/>
		<path fill="#FFFFFF" d="M37.4,38h-2.8c-0.3,0-0.6,0.2-0.6,0.6v2.8c0,0.3,0.2,0.6,0.6,0.6h2.8c0.3,0,0.6-0.2,0.6-0.6v-2.8
			C38,38.3,37.7,38,37.4,38z"/>
		<path fill="#FFFFFF" d="M42.4,38h-2.8c-0.3,0-0.6,0.2-0.6,0.6v2.8c0,0.3,0.2,0.6,0.6,0.6h2.8c0.3,0,0.6-0.2,0.6-0.6v-2.8
			C43,38.3,42.7,38,42.4,38z"/>
		<path fill="#FFFFFF" d="M47.4,38h-2.8c-0.3,0-0.6,0.2-0.6,0.6v2.8c0,0.3,0.2,0.6,0.6,0.6h2.8c0.3,0,0.6-0.2,0.6-0.6v-2.8
			C47.9,38.3,47.7,38,47.4,38z"/>
		<path fill="#FFFFFF" d="M52.4,38h-2.8c-0.3,0-0.6,0.2-0.6,0.6v2.8c0,0.3,0.2,0.6,0.6,0.6h2.8c0.3,0,0.6-0.2,0.6-0.6v-2.8
			C52.9,38.3,52.7,38,52.4,38z"/>
		<path fill="#FFFFFF" d="M22.4,43h-2.8c-0.3,0-0.6,0.2-0.6,0.6v2.8c0,0.3,0.2,0.6,0.6,0.6h2.8c0.3,0,0.6-0.2,0.6-0.6v-2.8
			C23,43.3,22.7,43,22.4,43z"/>
		<path fill="#FFFFFF" d="M27.4,43h-2.8c-0.3,0-0.6,0.2-0.6,0.6v2.8c0,0.3,0.2,0.6,0.6,0.6h2.8c0.3,0,0.6-0.2,0.6-0.6v-2.8
			C28,43.3,27.7,43,27.4,43z"/>
		<path fill="#FFFFFF" d="M32.4,43h-2.8c-0.3,0-0.6,0.2-0.6,0.6v2.8c0,0.3,0.2,0.6,0.6,0.6h2.8c0.3,0,0.6-0.2,0.6-0.6v-2.8
			C33,43.3,32.7,43,32.4,43z"/>
		<path fill="#FFFFFF" d="M37.4,43h-2.8c-0.3,0-0.6,0.2-0.6,0.6v2.8c0,0.3,0.2,0.6,0.6,0.6h2.8c0.3,0,0.6-0.2,0.6-0.6v-2.8
			C38,43.3,37.7,43,37.4,43z"/>
		<path fill="#FFFFFF" d="M42.4,43h-2.8c-0.3,0-0.6,0.2-0.6,0.6v2.8c0,0.3,0.2,0.6,0.6,0.6h2.8c0.3,0,0.6-0.2,0.6-0.6v-2.8
			C43,43.3,42.7,43,42.4,43z"/>
		<path fill="#FFFFFF" d="M47.4,43h-2.8c-0.3,0-0.6,0.2-0.6,0.6v2.8c0,0.3,0.2,0.6,0.6,0.6h2.8c0.3,0,0.6-0.2,0.6-0.6v-2.8
			C47.9,43.3,47.7,43,47.4,43z"/>
		<path fill="#FFFFFF" d="M52.4,43h-2.8c-0.3,0-0.6,0.2-0.6,0.6v2.8c0,0.3,0.2,0.6,0.6,0.6h2.8c0.3,0,0.6-0.2,0.6-0.6v-2.8
			C52.9,43.3,52.7,43,52.4,43z"/>
		<path fill="#FFFFFF" d="M22.4,48.1h-2.8c-0.3,0-0.6,0.2-0.6,0.6v2.8c0,0.3,0.2,0.6,0.6,0.6h2.8c0.3,0,0.6-0.2,0.6-0.6v-2.8
			C23,48.3,22.7,48.1,22.4,48.1z"/>
		<path fill="#FFFFFF" d="M27.4,48.1h-2.8c-0.3,0-0.6,0.2-0.6,0.6v2.8c0,0.3,0.2,0.6,0.6,0.6h2.8c0.3,0,0.6-0.2,0.6-0.6v-2.8
			C28,48.3,27.7,48.1,27.4,48.1z"/>
		<path fill="#FFFFFF" d="M32.4,48.1h-2.8c-0.3,0-0.6,0.2-0.6,0.6v2.8c0,0.3,0.2,0.6,0.6,0.6h2.8c0.3,0,0.6-0.2,0.6-0.6v-2.8
			C33,48.3,32.7,48.1,32.4,48.1z"/>
		<path fill="#FFFFFF" d="M27.4,28.1h-2.8c-0.3,0-0.6,0.2-0.6,0.6v2.8c0,0.3,0.2,0.6,0.6,0.6h2.8c0.3,0,0.6-0.2,0.6-0.6v-2.8
			C28,28.3,27.7,28.1,27.4,28.1z"/>
		<path fill="#FFFFFF" d="M32.4,28.1h-2.8c-0.3,0-0.6,0.2-0.6,0.6v2.8c0,0.3,0.2,0.6,0.6,0.6h2.8c0.3,0,0.6-0.2,0.6-0.6v-2.8
			C33,28.3,32.7,28.1,32.4,28.1z"/>
		<path fill="#FFFFFF" d="M37.4,28.1h-2.8c-0.3,0-0.6,0.2-0.6,0.6v2.8c0,0.3,0.2,0.6,0.6,0.6h2.8c0.3,0,0.6-0.2,0.6-0.6v-2.8
			C38,28.3,37.7,28.1,37.4,28.1z"/>
		<path fill="#FFFFFF" d="M42.4,28.1h-2.8c-0.3,0-0.6,0.2-0.6,0.6v2.8c0,0.3,0.2,0.6,0.6,0.6h2.8c0.3,0,0.6-0.2,0.6-0.6v-2.8
			C43,28.3,42.7,28.1,42.4,28.1z"/>
		<path fill="#FFFFFF" d="M47.4,28.1h-2.8c-0.3,0-0.6,0.2-0.6,0.6v2.8c0,0.3,0.2,0.6,0.6,0.6h2.8c0.3,0,0.6-0.2,0.6-0.6v-2.8
			C47.9,28.3,47.7,28.1,47.4,28.1z"/>
		<path fill="#FFFFFF" d="M52.4,28.1h-2.8c-0.3,0-0.6,0.2-0.6,0.6v2.8c0,0.3,0.2,0.6,0.6,0.6h2.8c0.3,0,0.6-0.2,0.6-0.6v-2.8
			C52.9,28.3,52.7,28.1,52.4,28.1z"/>
	</g>
</g>
</svg>
