<?xml version="1.0" encoding="utf-8"?>
<!-- Generator: Adobe Illustrator 17.1.0, SVG Export Plug-In . SVG Version: 6.00 Build 0)  -->
<!DOCTYPE svg PUBLIC "-//W3C//DTD SVG 1.1//EN" "http://www.w3.org/Graphics/SVG/1.1/DTD/svg11.dtd">
<svg version="1.1" xmlns="http://www.w3.org/2000/svg" xmlns:xlink="http://www.w3.org/1999/xlink" x="0px" y="0px"
	 viewBox="0 0 72 72" enable-background="new 0 0 72 72" xml:space="preserve">
<g id="Layer_1">
	<circle fill="#555655" cx="36" cy="36" r="36"/>
</g>
<g id="Layer_2">
	<g>
		<path fill="#FFFFFF" d="M20.4,48c3.4,0,4.2-1.9,4.3-2c0,0,0,0,0,0c0-0.1,0.1-0.2,0.2-0.3c0,0,0,0,0,0c0.1-0.1,0.2-0.2,0.4-0.2
			c0.1,0,0.2,0,0.3,0c0,0,0,0,0,0c0.1,0,0.2,0,0.3,0.1c0,0,0,0,0,0c0,0,0,0,0,0c0.1,0,0.2,0.1,0.3,0.2c0,0,0,0,0,0
			c0.1,0.1,0.1,0.1,0.1,0.2c0,0,0.1,0.1,0.1,0.1c0,0,0,0,0,0c0,0.1,0.9,2,4.3,2s4.2-1.9,4.3-2c0.2-0.4,0.5-0.6,0.9-0.6
			c0.4,0,0.8,0.3,0.9,0.6c0,0.1,0.9,2,4.3,2c3.4,0,4.2-1.9,4.3-2c0,0,0,0,0,0c0-0.1,0.1-0.2,0.2-0.3c0,0,0,0,0,0
			c0.1-0.1,0.2-0.2,0.4-0.2c0.1,0,0.2,0,0.3,0c0,0,0,0,0,0c0.1,0,0.2,0,0.4,0.1c0,0,0,0,0,0c0,0,0,0,0,0c0.1,0,0.2,0.1,0.3,0.2
			c0,0,0,0,0,0c0.1,0.1,0.1,0.1,0.1,0.2c0,0,0.1,0.1,0.1,0.1c0,0,0,0,0,0c0,0.1,0.9,2,4.3,2c0.2,0,0.4,0,0.6,0
			c0.5-3.6-0.1-7-1.7-10.3c-2.3-4.8-5.1-9.4-7.8-14c-2.8-4.9-5.1-9.9-6.5-15.4c0,0,0-0.1-0.1-0.2c-0.1,0.1-0.1,0.2-0.1,0.2
			c-1.5,5.4-3.7,10.5-6.5,15.4c-2.7,4.6-5.4,9.2-7.8,14c-1.6,3.3-2.3,6.7-1.7,10.3C20,48,20.2,48,20.4,48z"/>
		<g>
			<path fill="#FFFFFF" d="M46.4,50.1C45.5,51,43.9,52,41.2,52c-2.7,0-4.3-1-5.2-1.9C35.1,51,33.5,52,30.8,52c-2.7,0-4.3-1-5.2-1.9
				c-0.8,0.8-2.3,1.8-4.7,1.9c2.6,6,8.5,10,15.1,10c6.5,0,12.5-3.9,15.1-10C48.6,51.8,47.2,50.9,46.4,50.1z"/>
		</g>
	</g>
</g>
</svg>
