<?xml version="1.0" encoding="utf-8"?>
<!-- Generator: Adobe Illustrator 16.0.0, SVG Export Plug-In . SVG Version: 6.00 Build 0)  -->
<!DOCTYPE svg PUBLIC "-//W3C//DTD SVG 1.1//EN" "http://www.w3.org/Graphics/SVG/1.1/DTD/svg11.dtd">
<svg version="1.1" id="Layer_1" xmlns="http://www.w3.org/2000/svg" xmlns:xlink="http://www.w3.org/1999/xlink" x="0px" y="0px"
	 width="512.47px" height="512.471px" viewBox="49.765 139.765 512.47 512.471"
	 enable-background="new 49.765 139.765 512.47 512.471" xml:space="preserve">
<g id="Layer_1_1_">
	<circle fill="#555655" cx="306" cy="396" r="256.235"/>
</g>
<g id="Layer_2">
	<g>
		<path fill="#FFFFFF" d="M276.818,282.83c0-16.371,12.812-29.183,29.183-29.183c16.37,0,29.182,12.812,29.182,29.183
			S322.37,312.012,306,312.012C289.629,312.012,276.818,299.2,276.818,282.83z M276.818,396c0-16.371,12.812-29.182,29.183-29.182
			c16.37,0,29.182,12.812,29.182,29.182c0,16.371-12.812,29.183-29.182,29.183C289.629,425.183,276.818,412.371,276.818,396z
			 M276.818,509.171c0-16.371,12.812-29.183,29.183-29.183c16.37,0,29.182,12.812,29.182,29.183
			c0,16.37-12.812,29.182-29.182,29.182C289.629,538.353,276.818,525.541,276.818,509.171z"/>
	</g>
</g>
</svg>