<?xml version="1.0" encoding="utf-8"?>
<!-- Generator: Adobe Illustrator 17.1.0, SVG Export Plug-In . SVG Version: 6.00 Build 0)  -->
<!DOCTYPE svg PUBLIC "-//W3C//DTD SVG 1.1//EN" "http://www.w3.org/Graphics/SVG/1.1/DTD/svg11.dtd">
<svg version="1.1" xmlns="http://www.w3.org/2000/svg" xmlns:xlink="http://www.w3.org/1999/xlink" x="0px" y="0px"
	 viewBox="0 0 72 72" enable-background="new 0 0 72 72" xml:space="preserve">
<g id="Layer_1">
	<g>
		<path fill="#333333" d="M36,4c17.6,0,32,14.4,32,32S53.6,68,36,68S4,53.6,4,36S18.4,4,36,4 M36,0C16.1,0,0,16.1,0,36
			s16.1,36,36,36s36-16.1,36-36S55.9,0,36,0L36,0z"/>
	</g>
</g>
<g id="Layer_2">
	<path fill="#4284C5" d="M36,7.2C20.1,7.2,7.2,20.1,7.2,36S20.1,64.8,36,64.8S64.8,51.9,64.8,36S51.9,7.2,36,7.2L36,7.2z"/>
	<path fill="#FFFFFF" d="M39.6,42.5h5.5c2,0,3.6-1.6,3.6-3.6s-1.6-3.6-3.6-3.6H32.7l-3.9-14.4c-0.6-1.9-2.5-3-4.4-2.5
		c-1.9,0.6-3,2.5-2.5,4.4l4.7,17c0.4,1.5,1.8,2.6,3.4,2.6h5.8v7.3L27,51.7v2h21.5v-2l-8.9-1.9L39.6,42.5L39.6,42.5z"/>
</g>
</svg>
