<?xml version="1.0" encoding="utf-8"?>
<!-- Generator: Adobe Illustrator 17.1.0, SVG Export Plug-In . SVG Version: 6.00 Build 0)  -->
<!DOCTYPE svg PUBLIC "-//W3C//DTD SVG 1.1//EN" "http://www.w3.org/Graphics/SVG/1.1/DTD/svg11.dtd">
<svg version="1.1" xmlns="http://www.w3.org/2000/svg" xmlns:xlink="http://www.w3.org/1999/xlink" x="0px" y="0px"
	 viewBox="0 0 72 72" enable-background="new 0 0 72 72" xml:space="preserve">
<g id="Layer_1">
	<g>
		<path fill="#333333" d="M36,4c17.6,0,32,14.4,32,32S53.6,68,36,68S4,53.6,4,36S18.4,4,36,4 M36,0C16.1,0,0,16.1,0,36
			s16.1,36,36,36s36-16.1,36-36S55.9,0,36,0L36,0z"/>
	</g>
</g>
<g id="Layer_2">
	<g>
		<g>
			<path fill="#82C341" d="M36,7.2C20.1,7.2,7.2,20.1,7.2,36S20.1,64.8,36,64.8S64.8,51.9,64.8,36S51.9,7.2,36,7.2z"/>
		</g>
		<g>
			<path fill="#FFFFFF" d="M36,17c1.7,0,3.1,1.4,3.1,3.1s-1.4,3.1-3.1,3.1c-1.7,0-3.1-1.4-3.1-3.1S34.3,17,36,17z"/>
		</g>
		<g>
			<path fill="#FFFFFF" d="M42.2,36.6l-2.5-8.2H39l4.2,14.6h-3.9v10.7c0,1.9-2.9,1.9-2.9,0V42.9h-0.9v10.8c0,1.9-3,1.9-3,0V43h-3.9
				L33,28.4h-0.6l-2.5,8.2c-0.6,1.8-3,1-2.5-0.9l2.7-9c0.3-1,1.6-2.8,3.8-2.8H36h2.2c2.2,0,3.5,1.8,3.8,2.8l2.7,9
				C45.2,37.7,42.8,38.4,42.2,36.6z"/>
		</g>
	</g>
</g>
</svg>
