<?xml version="1.0" encoding="utf-8"?>
<!-- Generator: Adobe Illustrator 17.1.0, SVG Export Plug-In . SVG Version: 6.00 Build 0)  -->
<!DOCTYPE svg PUBLIC "-//W3C//DTD SVG 1.1//EN" "http://www.w3.org/Graphics/SVG/1.1/DTD/svg11.dtd">
<svg version="1.1" id="Layer_1" xmlns="http://www.w3.org/2000/svg" xmlns:xlink="http://www.w3.org/1999/xlink" x="0px" y="0px"
	 viewBox="0 0 72 72" enable-background="new 0 0 72 72" xml:space="preserve">
<g>
	<path fill="#555655" d="M36,0C16.1,0,0,16.1,0,36s16.1,36,36,36c19.9,0,36-16.1,36-36S55.9,0,36,0z"/>
	<g>
		<path fill="#FFFFFF" d="M11.7,19.9h35.8c8.6,0,12.7,4.4,12.7,15.7c0,14.8-6.1,16.6-14.4,16.6H31.4v-26h7.2v21.4h7
			c4.8,0,6.8-3.3,6.8-11.9c0-8.6-2.3-11.1-7.2-11.1H29.4v27.6h-7.2V24.5H11.7V19.9z"/>
	</g>
</g>
</svg>
