<?xml version="1.0" encoding="utf-8"?>
<!-- Generator: Adobe Illustrator 17.1.0, SVG Export Plug-In . SVG Version: 6.00 Build 0)  -->
<!DOCTYPE svg PUBLIC "-//W3C//DTD SVG 1.1//EN" "http://www.w3.org/Graphics/SVG/1.1/DTD/svg11.dtd">
<svg version="1.1" xmlns="http://www.w3.org/2000/svg" xmlns:xlink="http://www.w3.org/1999/xlink" x="0px" y="0px"
	 viewBox="0 0 72 72" enable-background="new 0 0 72 72" xml:space="preserve">
<g id="Layer_1">
	<g>
		<path fill="#333333" d="M36,4c17.6,0,32,14.4,32,32S53.6,68,36,68S4,53.6,4,36S18.4,4,36,4 M36,0C16.1,0,0,16.1,0,36
			s16.1,36,36,36s36-16.1,36-36S55.9,0,36,0L36,0z"/>
	</g>
</g>
<g id="Layer_2">
	<g>
		<circle fill="#565756" cx="36" cy="36" r="28.8"/>
		<path fill="#FFFFFF" d="M40.2,55.4h-8.5V31.1h8.5C40.2,31.1,40.2,55.4,40.2,55.4z M36,27.3c-3,0-5.3-2.4-5.3-5.3s2.4-5.3,5.3-5.3
			s5.3,2.4,5.3,5.3S39,27.3,36,27.3z"/>
	</g>
</g>
</svg>
