<?xml version="1.0" encoding="utf-8"?>
<!-- Generator: Adobe Illustrator 17.1.0, SVG Export Plug-In . SVG Version: 6.00 Build 0)  -->
<!DOCTYPE svg PUBLIC "-//W3C//DTD SVG 1.1//EN" "http://www.w3.org/Graphics/SVG/1.1/DTD/svg11.dtd">
<svg version="1.1" xmlns="http://www.w3.org/2000/svg" xmlns:xlink="http://www.w3.org/1999/xlink" x="0px" y="0px"
	 viewBox="0 0 72 72" enable-background="new 0 0 72 72" xml:space="preserve">
<g id="Layer_1">
	<g>
		<path fill="#333333" d="M36,4c17.6,0,32,14.4,32,32S53.6,68,36,68S4,53.6,4,36S18.4,4,36,4 M36,0C16.1,0,0,16.1,0,36
			s16.1,36,36,36s36-16.1,36-36S55.9,0,36,0L36,0z"/>
	</g>
</g>
<g id="Layer_2">
	<g id="Layer_1_1_">
		<circle fill="#565756" cx="36" cy="36" r="28.8"/>
	</g>
	<g id="Layer_2_1_">
		<g>
			<path fill="#FFFFFF" d="M23.5,45.6c2.7,0,3.4-1.5,3.4-1.6l0,0c0-0.1,0.1-0.2,0.2-0.2l0,0c0.1-0.1,0.2-0.2,0.3-0.2
				c0.1,0,0.2,0,0.2,0l0,0c0.1,0,0.2,0,0.2,0.1l0,0l0,0c0.1,0,0.2,0.1,0.2,0.2l0,0c0.1,0.1,0.1,0.1,0.1,0.2l0.1,0.1l0,0
				c0,0.1,0.7,1.6,3.4,1.6s3.4-1.5,3.4-1.6c0.2-0.3,0.4-0.5,0.7-0.5c0.3,0,0.6,0.2,0.7,0.5c0,0.1,0.7,1.6,3.4,1.6
				c2.7,0,3.4-1.5,3.4-1.6l0,0c0-0.1,0.1-0.2,0.2-0.2l0,0c0.1-0.1,0.2-0.2,0.3-0.2c0.1,0,0.2,0,0.2,0l0,0c0.1,0,0.2,0,0.3,0.1l0,0
				l0,0c0.1,0,0.2,0.1,0.2,0.2l0,0c0.1,0.1,0.1,0.1,0.1,0.2l0.1,0.1l0,0c0,0.1,0.7,1.6,3.4,1.6c0.2,0,0.3,0,0.5,0
				c0.4-2.9-0.1-5.6-1.4-8.2c-1.8-3.8-4.1-7.5-6.2-11.2c-2.2-3.9-4.1-7.9-5.2-12.3c0,0,0-0.1-0.1-0.2c-0.1,0.1-0.1,0.2-0.1,0.2
				c-1.2,4.3-3,8.4-5.2,12.3c-2.2,3.7-4.3,7.4-6.2,11.2c-1.3,2.6-1.8,5.4-1.4,8.2C23.2,45.6,23.4,45.6,23.5,45.6z"/>
			<g>
				<path fill="#FFFFFF" d="M44.3,47.3c-0.7,0.7-2,1.5-4.2,1.5S36.7,48,36,47.3c-0.7,0.7-2,1.5-4.2,1.5s-3.4-0.8-4.2-1.5
					c-0.6,0.6-1.8,1.4-3.8,1.5c2.1,4.8,6.8,8,12.1,8c5.2,0,10-3.1,12.1-8C46.1,48.6,45,47.9,44.3,47.3z"/>
			</g>
		</g>
	</g>
</g>
</svg>
