<?xml version="1.0" encoding="utf-8"?>
<!-- Generator: Adobe Illustrator 17.1.0, SVG Export Plug-In . SVG Version: 6.00 Build 0)  -->
<!DOCTYPE svg PUBLIC "-//W3C//DTD SVG 1.1//EN" "http://www.w3.org/Graphics/SVG/1.1/DTD/svg11.dtd">
<svg version="1.1" id="Layer_1" xmlns="http://www.w3.org/2000/svg" xmlns:xlink="http://www.w3.org/1999/xlink" x="0px" y="0px"
	 viewBox="0 0 72 72" enable-background="new 0 0 72 72" xml:space="preserve">
<path fill="#4284C5" d="M40.5,44.1h6.9c2.5,0,4.5-2,4.5-4.5s-2-4.5-4.5-4.5H31.9l-4.9-18c-0.7-2.4-3.1-3.8-5.5-3.1s-3.8,3.1-3.1,5.5
	l5.9,21.3c0.5,1.9,2.3,3.3,4.3,3.3h7.3v9.1l-11.1,2.4v2.5h26.9v-2.5l-11.1-2.4L40.5,44.1L40.5,44.1z"/>
<path fill="#4284C5" d="M36,4c17.6,0,32,14.4,32,32S53.6,68,36,68S4,53.6,4,36S18.4,4,36,4 M36,0C16.1,0,0,16.1,0,36s16.1,36,36,36
	s36-16.1,36-36S55.9,0,36,0L36,0z"/>
</svg>
