<?xml version="1.0" encoding="utf-8"?>
<!-- Generator: Adobe Illustrator 17.1.0, SVG Export Plug-In . SVG Version: 6.00 Build 0)  -->
<!DOCTYPE svg PUBLIC "-//W3C//DTD SVG 1.1//EN" "http://www.w3.org/Graphics/SVG/1.1/DTD/svg11.dtd">
<svg version="1.1" xmlns="http://www.w3.org/2000/svg" xmlns:xlink="http://www.w3.org/1999/xlink" x="0px" y="0px"
	 viewBox="0 0 72 72" enable-background="new 0 0 72 72" xml:space="preserve">
<g id="Layer_1">
	<circle fill="#555655" cx="36" cy="36" r="36"/>
</g>
<g id="Layer_2">
	<path fill="#FFFFFF" d="M53.4,21.1c-4.3-3.2-9.8-3.4-13.9-0.5c-1.4,1-2.5,2.3-3.6,3.8c-1.1-1.5-2.2-2.7-3.6-3.8
		c-4-2.9-9.6-2.7-13.9,0.5c-5,3.7-6.3,10.1-3.2,15.5c1.6,2.7,3.6,5.1,5.7,7.4c4.6,5,9.5,9.7,14.5,14.4c0.2,0.2,0.3,0.3,0.5,0.3
		c0.1,0,0.3-0.1,0.5-0.3c5-4.7,9.9-9.4,14.5-14.4c2.1-2.3,4.2-4.7,5.7-7.4C59.8,31.2,58.5,24.8,53.4,21.1z M36.6,51.3
		c-0.4,0.8-1.2,1.3-2.1,1.3c-0.4,0-0.8-0.1-1.1-0.3c-1.2-0.6-1.6-2.1-1-3.3l3.8-6.9h-8.4l7.6-14c0.4-0.8,1.2-1.3,2.1-1.3
		c0.4,0,0.8,0.1,1.2,0.3c0.6,0.3,1,0.8,1.2,1.4c0.2,0.6,0.1,1.3-0.2,1.8l-3.8,6.9h8.4L36.6,51.3z"/>
</g>
</svg>
