<?xml version="1.0" encoding="utf-8"?>
<!-- Generator: Adobe Illustrator 17.1.0, SVG Export Plug-In . SVG Version: 6.00 Build 0)  -->
<!DOCTYPE svg PUBLIC "-//W3C//DTD SVG 1.1//EN" "http://www.w3.org/Graphics/SVG/1.1/DTD/svg11.dtd">
<svg version="1.1" id="Layer_1" xmlns="http://www.w3.org/2000/svg" xmlns:xlink="http://www.w3.org/1999/xlink" x="0px" y="0px"
	 viewBox="0 0 72 72" enable-background="new 0 0 72 72" xml:space="preserve">
<g>
	<path fill="#555655" d="M36,0C16.1,0,0,16.1,0,36s16.1,36,36,36s36-16.1,36-36S55.9,0,36,0z"/>
	<g>
		<path fill="#FFFFFF" d="M45,35.5c1,0,1.8-0.8,1.8-1.8c0-1-0.8-1.8-1.8-1.8c-1,0-1.8,0.8-1.8,1.8C43.2,34.7,44,35.5,45,35.5z"/>
		<path fill="#FFFFFF" d="M27.8,35.4c1,0,1.8-0.8,1.8-1.8c0-1-0.8-1.8-1.8-1.8c-1,0-1.8,0.8-1.8,1.8C26,34.6,26.8,35.4,27.8,35.4z"
			/>
		<polygon fill="#FFFFFF" points="49.3,16.2 47.7,14.5 44.5,17.8 44.5,8.7 42.1,8.7 42.1,17.8 38.9,14.5 37.2,16.2 43.3,22.2 		"/>
		<path fill="#FFFFFF" d="M31.2,37.5c-0.2-0.6-0.9-1.6-2.2-1.6h-1.3h-1.2c-1.3,0-2,1-2.2,1.6l-1.5,5.1c-0.3,1.1,1.1,1.5,1.4,0.5
			l1.4-4.7H26l-2.4,8.3h2.2l0,6.1c0,1.1,1.7,1.1,1.7,0v-6.1H28v6.1c0,1.1,1.7,1.1,1.7,0v-6.1h2.2l-2.4-8.3h0.4l1.4,4.7
			c0.3,1.1,1.7,0.6,1.4-0.5L31.2,37.5z"/>
		<polygon fill="#FFFFFF" points="27.5,13.2 27.5,22.2 29.9,22.2 29.9,13.2 33.1,16.4 34.8,14.8 28.7,8.7 22.7,14.8 24.3,16.4 		"/>
		<path fill="#FFFFFF" d="M36.6,43.4c0.7,0,1.3-0.6,1.3-1.3c0-0.7-0.6-1.3-1.3-1.3c-0.7,0-1.3,0.6-1.3,1.3
			C35.3,42.8,35.9,43.4,36.6,43.4z"/>
		<path fill="#FFFFFF" d="M49.4,24.5H22.6c-3,0-5.4,2.4-5.4,5.4v25.2c0,3,2.4,5.4,5.4,5.4h26.7c3,0,5.4-2.4,5.4-5.4V30
			C54.8,27,52.4,24.5,49.4,24.5z M51.9,55.2c0,1.4-1.1,2.5-2.5,2.5H22.6c-1.4,0-2.5-1.1-2.5-2.5V30c0-1.4,1.1-2.5,2.5-2.5h26.7
			c1.4,0,2.5,1.1,2.5,2.5V55.2z"/>
		<path fill="#FFFFFF" d="M37.9,43.7h-2.7c-0.9,0-1.6,0.8-1.6,1.7v3c0,0.8,1.1,0.8,1.1,0v-2.7H35v7.1c0,1,1.5,1,1.5,0v-3.9h0.3v3.9
			c0,1,1.5,1,1.5,0v-7.1h0.3v2.7c0,0.8,1.1,0.8,1.1,0v-3C39.6,44.5,38.9,43.7,37.9,43.7z"/>
		<path fill="#FFFFFF" d="M46.9,35.9h-3.8c-1.3,0-2.3,1.1-2.3,2.3v5.5c0,1.1,1.6,1.1,1.6,0v-5h0.4v13.8c0,1.4,2.1,1.4,2.1,0v-8h0.4
			v8c0,1.4,2.1,1.4,2.1,0V38.7h0.4v5c0,1.1,1.6,1.1,1.6,0v-5.5C49.2,37,48.3,35.9,46.9,35.9z"/>
	</g>
</g>
</svg>
