<?xml version="1.0" encoding="utf-8"?>
<!-- Generator: Adobe Illustrator 17.1.0, SVG Export Plug-In . SVG Version: 6.00 Build 0)  -->
<!DOCTYPE svg PUBLIC "-//W3C//DTD SVG 1.1//EN" "http://www.w3.org/Graphics/SVG/1.1/DTD/svg11.dtd">
<svg version="1.1" xmlns="http://www.w3.org/2000/svg" xmlns:xlink="http://www.w3.org/1999/xlink" x="0px" y="0px"
	 viewBox="0 0 72 72" enable-background="new 0 0 72 72" xml:space="preserve">
<g id="Layer_1">
	<g>
		<path fill="#333333" d="M36,4c17.6,0,32,14.4,32,32S53.6,68,36,68S4,53.6,4,36S18.4,4,36,4 M36,0C16.1,0,0,16.1,0,36
			s16.1,36,36,36s36-16.1,36-36S55.9,0,36,0L36,0z"/>
	</g>
</g>
<g id="Layer_2">
	<g>
		<g>
			<path fill="#82C341" d="M36,7.2C20.1,7.2,7.2,20.1,7.2,36S20.1,64.8,36,64.8S64.8,51.9,64.8,36S51.9,7.2,36,7.2z"/>
		</g>
		<g>
			<path fill="#FFFFFF" d="M36,17c1.8,0,3.2,1.4,3.2,3.2c0,1.8-1.4,3.1-3.2,3.1s-3.1-1.4-3.1-3.1C32.9,18.3,34.2,17,36,17z"/>
		</g>
		<g>
			<path fill="#FFFFFF" d="M43.4,37.8c0,1.9-2.7,1.9-2.7,0v-9H40v24.3c0,2.6-3.7,2.5-3.7,0V39.1h-0.6v14.1c0,2.5-3.7,2.6-3.7,0V28.9
				h-0.6v8.9c0,1.8-2.8,1.8-2.8,0v-9.7c0-2.2,1.8-4.1,4.1-4.1h6.6c2.5,0,4.1,2.1,4.1,4.2L43.4,37.8L43.4,37.8z"/>
		</g>
	</g>
</g>
</svg>
