<?xml version="1.0" encoding="utf-8"?>
<!-- Generator: Adobe Illustrator 17.1.0, SVG Export Plug-In . SVG Version: 6.00 Build 0)  -->
<!DOCTYPE svg PUBLIC "-//W3C//DTD SVG 1.1//EN" "http://www.w3.org/Graphics/SVG/1.1/DTD/svg11.dtd">
<svg version="1.1" id="Layer_1" xmlns="http://www.w3.org/2000/svg" xmlns:xlink="http://www.w3.org/1999/xlink" x="0px" y="0px"
	 viewBox="0 0 72 72" enable-background="new 0 0 72 72" xml:space="preserve">
<g>
	<circle fill="#555655" cx="36" cy="36" r="36"/>
	<g>
		<path fill="#FFFFFF" d="M54.5,32h-2.1c-0.8,0-1.5,0.7-1.5,1.5v1.1h-1.8l0.1-12.8c0-0.2-0.1-0.4-0.3-0.5c-0.2-0.1-4-2.7-12.9-2.7
			c-8.9,0-12.8,2.6-12.9,2.7c-0.2,0.1-0.3,0.3-0.3,0.5l0.1,12.8h-1.8v-1.1c0-0.8-0.7-1.5-1.5-1.5h-2.1c-0.8,0-1.5,0.6-1.6,1.4
			c0,0.9,0.6,1.6,1.5,1.6h1.3V55c0,1.3,1.1,2.4,2.4,2.4h0h3.2v-2.1c0.2,0.1,0.4,0.1,0.7,0.1h22.1c0.2,0,0.5-0.1,0.7-0.1v2.1h3.2h0h0
			c1.3,0,2.4-1.1,2.4-2.4V34.9h1.3c0.8,0,1.5-0.7,1.5-1.6C56,32.6,55.3,32,54.5,32z M47.7,43c-0.2-0.1-0.4-0.1-0.7-0.1H24.9
			c-0.2,0-0.5,0.1-0.7,0.1v-1.2c0.5-1.7,2.3-1.8,2.5-1.8l18.4,0c0.1,0,2.1,0.1,2.5,1.8V43z"/>
		<path fill="#FFFFFF" d="M47.1,19.3c0-4.7,1.3-6,6-6c-4.7,0-6-1.3-6-6c0,4.7-1.3,6-6,6C45.8,13.3,47.1,14.6,47.1,19.3z"/>
		<path fill="#FFFFFF" d="M39.8,13.6c0-3,0.8-3.8,3.8-3.8c-3,0-3.8-0.8-3.8-3.8c0,3-0.8,3.8-3.8,3.8C39,9.8,39.8,10.6,39.8,13.6z"/>
		<path fill="#FFFFFF" d="M57.8,24.3c0,3.9-1.1,5-5,5c3.9,0,5,1.1,5,5c0-3.9,1.1-5,5-5C58.9,29.2,57.8,28.1,57.8,24.3z"/>
	</g>
</g>
</svg>
