<?xml version="1.0" encoding="utf-8"?>
<!-- Generator: Adobe Illustrator 17.1.0, SVG Export Plug-In . SVG Version: 6.00 Build 0)  -->
<!DOCTYPE svg PUBLIC "-//W3C//DTD SVG 1.1//EN" "http://www.w3.org/Graphics/SVG/1.1/DTD/svg11.dtd">
<svg version="1.1" xmlns="http://www.w3.org/2000/svg" xmlns:xlink="http://www.w3.org/1999/xlink" x="0px" y="0px"
	 viewBox="0 0 72 72" enable-background="new 0 0 72 72" xml:space="preserve">
<g id="Layer_1">
	<g>
		<path fill="#333333" d="M36,4c17.6,0,32,14.4,32,32S53.6,68,36,68S4,53.6,4,36S18.4,4,36,4 M36,0C16.1,0,0,16.1,0,36
			s16.1,36,36,36s36-16.1,36-36S55.9,0,36,0L36,0z"/>
	</g>
</g>
<g id="Layer_2">
	<circle fill="#CF3995" cx="36" cy="36" r="28.8"/>
	<path fill="#FFFFFF" d="M48.7,23.4l-2,4.6l-1.8,1.6l3-7l-7.4-2.3c0,0-1.1,2-4.5,2s-4.5-2-4.5-2l-7.4,2.3l3,7L25.6,28l-2-4.6l-5,9.4
		l6.2,3l2.3-4.1l3.7,15.9l-3.7-11.2v15.4h9h9V36.5l-3.7,11.2l3.7-15.9l2.3,4.1l6.2-3L48.7,23.4z"/>
</g>
</svg>
