<?xml version="1.0" encoding="utf-8"?>
<!-- Generator: Adobe Illustrator 17.1.0, SVG Export Plug-In . SVG Version: 6.00 Build 0)  -->
<!DOCTYPE svg PUBLIC "-//W3C//DTD SVG 1.1//EN" "http://www.w3.org/Graphics/SVG/1.1/DTD/svg11.dtd">
<svg version="1.1" id="Layer_2" xmlns="http://www.w3.org/2000/svg" xmlns:xlink="http://www.w3.org/1999/xlink" x="0px" y="0px"
	 viewBox="0 0 72 72" enable-background="new 0 0 72 72" xml:space="preserve">
<g>
	<g>
		<path fill="#81C341" d="M36,0C16.1,0,0,16.1,0,36s16.1,36,36,36s36-16.1,36-36S55.9,0,36,0z"/>
	</g>
	<g>
		<path fill="#FFFFFF" d="M36,12.2c2.2,0,4,1.8,4,4s-1.8,3.9-4,3.9s-3.9-1.8-3.9-3.9C32.1,13.9,33.8,12.2,36,12.2z"/>
	</g>
	<g>
		<path fill="#FFFFFF" d="M45.3,38.3c0,2.4-3.4,2.4-3.4,0V27.1H41v30.4c0,3.2-4.6,3.1-4.6,0V39.9h-0.8v17.6c0,3.1-4.6,3.2-4.6,0
			V27.1h-0.8v11.1c0,2.3-3.5,2.3-3.5,0V26.1c0-2.8,2.3-5.1,5.1-5.1h8.3c3.1,0,5.1,2.6,5.1,5.2L45.3,38.3L45.3,38.3z"/>
	</g>
</g>
</svg>
