<?xml version="1.0" encoding="utf-8"?>
<!-- Generator: Adobe Illustrator 17.1.0, SVG Export Plug-In . SVG Version: 6.00 Build 0)  -->
<!DOCTYPE svg PUBLIC "-//W3C//DTD SVG 1.1//EN" "http://www.w3.org/Graphics/SVG/1.1/DTD/svg11.dtd">
<svg version="1.1" id="Layer_1" xmlns="http://www.w3.org/2000/svg" xmlns:xlink="http://www.w3.org/1999/xlink" x="0px" y="0px"
	 viewBox="0 0 72 72" enable-background="new 0 0 72 72" xml:space="preserve">
<g>
	<path fill="#555655" d="M36,0C16.1,0,0,16.1,0,36s16.1,36,36,36s36-16.1,36-36S55.9,0,36,0z"/>
	<g>
		<polygon fill="#FFFFFF" points="52.8,24.5 47.1,24.5 47.1,30.2 47.1,33.7 43.6,33.7 37.9,33.7 37.9,39.5 37.9,43 34.4,43 28.6,43 
			28.6,48.7 28.6,52.2 19.4,52.2 19.4,57.9 28.6,57.9 34.4,57.9 34.4,52.2 34.4,48.7 37.9,48.7 43.6,48.7 43.6,43 43.6,39.5 
			47.1,39.5 52.8,39.5 52.8,33.7 52.8,30.2 62,30.2 62,24.5 		"/>
		<polygon fill="#FFFFFF" points="26.8,36.4 22.2,36.4 28.6,30 26.9,28.3 20.5,34.7 20.5,30.1 18.2,30.1 18.2,38.7 26.8,38.7 		"/>
		<polygon fill="#FFFFFF" points="34.2,24.4 40.6,18 40.6,22.6 42.9,22.6 42.9,14 34.3,14 34.3,16.3 38.9,16.3 32.5,22.7 		"/>
	</g>
</g>
</svg>
