<?xml version="1.0" encoding="utf-8"?>
<!-- Generator: Adobe Illustrator 17.1.0, SVG Export Plug-In . SVG Version: 6.00 Build 0)  -->
<!DOCTYPE svg PUBLIC "-//W3C//DTD SVG 1.1//EN" "http://www.w3.org/Graphics/SVG/1.1/DTD/svg11.dtd">
<svg version="1.1" xmlns="http://www.w3.org/2000/svg" xmlns:xlink="http://www.w3.org/1999/xlink" x="0px" y="0px"
	 viewBox="0 0 72 72" enable-background="new 0 0 72 72" xml:space="preserve">
<g id="Layer_1">
	<g>
		<path fill="#333333" d="M36,4c17.6,0,32,14.4,32,32S53.6,68,36,68S4,53.6,4,36S18.4,4,36,4 M36,0C16.1,0,0,16.1,0,36
			s16.1,36,36,36s36-16.1,36-36S55.9,0,36,0L36,0z"/>
	</g>
</g>
<g id="Layer_2">
	<g>
		<path fill="#565756" d="M36,7.2C20.1,7.2,7.2,20.1,7.2,36S20.1,64.8,36,64.8S64.8,51.9,64.8,36S51.9,7.2,36,7.2z"/>
		<g>
			<path fill="#FFFFFF" d="M53.3,27.4h-9.7v-0.7c0-1.6-1.3-2.9-2.9-2.9h-3.9c-1.6,0-2.9,1.3-2.9,2.9v9.9l-6.2,6.2h-5.2
				c-3.3,0-5.9,2.6-5.9,5.9v0.2c0,3.3,2.6,5.9,5.9,5.9h10.2l15.4-15.4h5.2c3.3,0,5.9-2.6,5.9-5.9v-0.2
				C59.2,30.1,56.6,27.4,53.3,27.4z M55.7,33.4c0,1.4-1.1,2.4-2.4,2.4h-6.6L31.2,51.4h-8.7c-1.4,0-2.4-1.1-2.4-2.4v-0.2
				c0-1.4,1.1-2.4,2.4-2.4h6.6L44.6,31h8.7C54.6,31,55.7,32.1,55.7,33.4L55.7,33.4z"/>
			<circle fill="#FFFFFF" cx="38.7" cy="19.3" r="3.1"/>
		</g>
	</g>
</g>
</svg>
