<?xml version="1.0" encoding="utf-8"?>
<!-- Generator: Adobe Illustrator 17.1.0, SVG Export Plug-In . SVG Version: 6.00 Build 0)  -->
<!DOCTYPE svg PUBLIC "-//W3C//DTD SVG 1.1//EN" "http://www.w3.org/Graphics/SVG/1.1/DTD/svg11.dtd">
<svg version="1.1" xmlns="http://www.w3.org/2000/svg" xmlns:xlink="http://www.w3.org/1999/xlink" x="0px" y="0px"
	 viewBox="0 0 72 72" enable-background="new 0 0 72 72" xml:space="preserve">
<g id="Layer_1">
	<g>
		<path fill="#333333" d="M36,4c17.6,0,32,14.4,32,32S53.6,68,36,68S4,53.6,4,36S18.4,4,36,4 M36,0C16.1,0,0,16.1,0,36
			s16.1,36,36,36s36-16.1,36-36S55.9,0,36,0L36,0z"/>
	</g>
</g>
<g id="Layer_2">
	<g>
		<path fill="#565756" d="M36,7.2C20.1,7.2,7.2,20.1,7.2,36S20.1,64.8,36,64.8S64.8,51.9,64.8,36S51.9,7.2,36,7.2z"/>
		<g>
			<path fill="#FFFFFF" d="M43.2,35.6c0.8,0,1.4-0.6,1.4-1.4s-0.6-1.4-1.4-1.4s-1.4,0.6-1.4,1.4S42.4,35.6,43.2,35.6z"/>
			<path fill="#FFFFFF" d="M29.4,35.5c0.8,0,1.4-0.6,1.4-1.4s-0.6-1.4-1.4-1.4c-0.8,0-1.4,0.6-1.4,1.4C28,34.9,28.6,35.5,29.4,35.5z
				"/>
			<polygon fill="#FFFFFF" points="46.6,20.2 45.4,18.8 42.8,21.4 42.8,14.2 40.9,14.2 40.9,21.4 38.3,18.8 37,20.2 41.8,25 			"/>
			<path fill="#FFFFFF" d="M32.2,37.2c-0.2-0.5-0.7-1.3-1.8-1.3h-1h-1c-1,0-1.6,0.8-1.8,1.3l-1.2,4.1c-0.2,0.9,0.9,1.2,1.1,0.4
				l1.1-3.8H28l-1.9,6.6h1.8v4.9c0,0.9,1.4,0.9,1.4,0v-4.9h0.4v4.9c0,0.9,1.4,0.9,1.4,0v-4.9h1.8l-1.9-6.6h0.3l1.1,3.8
				c0.2,0.9,1.4,0.5,1.1-0.4L32.2,37.2z"/>
			<polygon fill="#FFFFFF" points="29.2,17.8 29.2,25 31.1,25 31.1,17.8 33.7,20.3 35,19 30.2,14.2 25.4,19 26.6,20.3 			"/>
			<path fill="#FFFFFF" d="M36.5,41.9c0.6,0,1-0.5,1-1s-0.5-1-1-1s-1,0.5-1,1C35.4,41.4,35.9,41.9,36.5,41.9z"/>
			<path fill="#FFFFFF" d="M46.7,26.8H25.3c-2.4,0-4.3,1.9-4.3,4.3v20.2c0,2.4,1.9,4.3,4.3,4.3h21.4c2.4,0,4.3-1.9,4.3-4.3V31.2
				C51,28.8,49.1,26.8,46.7,26.8z M48.7,51.4c0,1.1-0.9,2-2,2H25.3c-1.1,0-2-0.9-2-2V31.2c0-1.1,0.9-2,2-2h21.4c1.1,0,2,0.9,2,2
				L48.7,51.4L48.7,51.4z"/>
			<path fill="#FFFFFF" d="M37.5,42.2h-2.2c-0.7,0-1.3,0.6-1.3,1.4v2.4c0,0.6,0.9,0.6,0.9,0v-2.2h0.2v5.7c0,0.8,1.2,0.8,1.2,0v-3.1
				h0.2v3.1c0,0.8,1.2,0.8,1.2,0v-5.7h0.2v2.2c0,0.6,0.9,0.6,0.9,0v-2.4C38.9,42.8,38.3,42.2,37.5,42.2z"/>
			<path fill="#FFFFFF" d="M44.7,35.9h-3c-1,0-1.8,0.9-1.8,1.8v4.4c0,0.9,1.3,0.9,1.3,0v-4h0.3v11c0,1.1,1.7,1.1,1.7,0v-6.4h0.3v6.4
				c0,1.1,1.7,1.1,1.7,0v-11h0.3v4c0,0.9,1.3,0.9,1.3,0v-4.4C46.6,36.8,45.8,35.9,44.7,35.9z"/>
		</g>
	</g>
</g>
</svg>
