<?xml version="1.0" encoding="utf-8"?>
<!-- Generator: Adobe Illustrator 17.1.0, SVG Export Plug-In . SVG Version: 6.00 Build 0)  -->
<!DOCTYPE svg PUBLIC "-//W3C//DTD SVG 1.1//EN" "http://www.w3.org/Graphics/SVG/1.1/DTD/svg11.dtd">
<svg version="1.1" id="Layer_1" xmlns="http://www.w3.org/2000/svg" xmlns:xlink="http://www.w3.org/1999/xlink" x="0px" y="0px"
	 viewBox="0 0 72 72" enable-background="new 0 0 72 72" xml:space="preserve">
<g>
	<path fill="#FFFFFF" d="M36,0C16.1,0,0,16.1,0,36s16.1,36,36,36c19.9,0,36-16.1,36-36S55.9,0,36,0z"/>
	<g>
		<circle fill="#282828" cx="34.9" cy="17.7" r="4.8"/>
		<path fill="#282828" d="M42.1,45.5c-1.6,3.4-5.1,5.8-9.2,5.8c-5.6,0-10.1-4.5-10.1-10.1c0-3.7,2-6.9,4.9-8.7v-4.2
			c-5.1,2.1-8.7,7.1-8.7,12.9c0,7.7,6.2,13.9,13.9,13.9c5.6,0,10.5-3.4,12.7-8.2l-1.4-1.4H42.1z"/>
		<path fill="#282828" d="M56,44.4l-7.1-7.1c-0.6-0.6-1.4-0.9-2.2-0.9h-7.4v-2.7h5c1,0,1.8-0.8,1.8-1.8c0-1-0.8-1.8-1.8-1.8h-5v-2.3
			c0-2.4-2-4.4-4.4-4.4c-2.4,0-4.4,2-4.4,4.4v10.4c0,2.2,1.6,4,3.8,4.4c0.2,0,0.4,0.1,0.6,0.1h10.5l6.2,6.2c0.6,0.6,1.4,0.9,2.2,0.9
			c0.8,0,1.6-0.3,2.2-0.9C57.2,47.7,57.2,45.7,56,44.4z"/>
	</g>
</g>
</svg>
