<?xml version="1.0" encoding="utf-8"?>
<!-- Generator: Adobe Illustrator 17.1.0, SVG Export Plug-In . SVG Version: 6.00 Build 0)  -->
<!DOCTYPE svg PUBLIC "-//W3C//DTD SVG 1.1//EN" "http://www.w3.org/Graphics/SVG/1.1/DTD/svg11.dtd">
<svg version="1.1" id="Layer_1" xmlns="http://www.w3.org/2000/svg" xmlns:xlink="http://www.w3.org/1999/xlink" x="0px" y="0px"
	 viewBox="0 0 72 72" enable-background="new 0 0 72 72" xml:space="preserve">
<g>
	<g>
		<path fill="#81C341" d="M36,0C16.1,0,0,16.1,0,36s16.1,36,36,36c19.9,0,36-16.1,36-36S55.9,0,36,0z"/>
	</g>
	<g>
		<path fill="#FFFFFF" d="M36,12.2c2.1,0,3.9,1.7,3.9,3.9c0,2.2-1.7,3.9-3.9,3.9c-2.1,0-3.9-1.7-3.9-3.9
			C32.1,13.9,33.9,12.2,36,12.2z"/>
	</g>
	<g>
		<path fill="#FFFFFF" d="M43.8,36.7l-3.1-10.3h-0.9l5.3,18.2h-4.9v13.4c0,2.4-3.6,2.4-3.6,0V44.6h-1.1v13.5c0,2.4-3.7,2.4-3.7,0
			l0-13.4h-4.9l5.3-18.2h-0.8l-3.1,10.3c-0.7,2.3-3.8,1.3-3.1-1.1l3.4-11.2c0.4-1.3,2-3.5,4.8-3.5h2.6h2.8c2.8,0,4.4,2.3,4.8,3.5
			l3.4,11.2C47.5,38.1,44.5,39,43.8,36.7z"/>
	</g>
</g>
</svg>
