<?xml version="1.0" encoding="utf-8"?>
<!-- Generator: Adobe Illustrator 17.1.0, SVG Export Plug-In . SVG Version: 6.00 Build 0)  -->
<!DOCTYPE svg PUBLIC "-//W3C//DTD SVG 1.1//EN" "http://www.w3.org/Graphics/SVG/1.1/DTD/svg11.dtd">
<svg version="1.1" xmlns="http://www.w3.org/2000/svg" xmlns:xlink="http://www.w3.org/1999/xlink" x="0px" y="0px"
	 viewBox="0 0 72 72" enable-background="new 0 0 72 72" xml:space="preserve">
<g id="Layer_1">
	<g>
		<path fill="#333333" d="M36,4c17.6,0,32,14.4,32,32S53.6,68,36,68S4,53.6,4,36S18.4,4,36,4 M36,0C16.1,0,0,16.1,0,36
			s16.1,36,36,36s36-16.1,36-36S55.9,0,36,0L36,0z"/>
	</g>
</g>
<g id="Layer_2">
	<g>
		<path fill="#565756" d="M36,7.2C20.1,7.2,7.2,20.1,7.2,36S20.1,64.8,36,64.8S64.8,51.9,64.8,36S51.9,7.2,36,7.2z"/>
		<g>
			<polygon fill="#FFFFFF" points="49.4,26.8 44.9,26.8 44.9,31.4 44.9,34.2 42.1,34.2 37.5,34.2 37.5,38.8 37.5,41.6 34.7,41.6 
				30.1,41.6 30.1,46.2 30.1,49 22.7,49 22.7,53.5 30.1,53.5 34.7,53.5 34.7,49 34.7,46.2 37.5,46.2 42.1,46.2 42.1,41.6 42.1,38.8 
				44.9,38.8 49.4,38.8 49.4,34.2 49.4,31.4 56.8,31.4 56.8,26.8 			"/>
			<polygon fill="#FFFFFF" points="28.6,36.3 25,36.3 30.1,31.2 28.7,29.8 23.6,35 23.6,31.3 21.8,31.3 21.8,38.2 28.6,38.2 			"/>
			<polygon fill="#FFFFFF" points="34.6,26.7 39.7,21.6 39.7,25.3 41.5,25.3 41.5,18.4 34.6,18.4 34.6,20.2 38.3,20.2 33.2,25.4 			
				"/>
		</g>
	</g>
</g>
</svg>
