<?xml version="1.0" encoding="utf-8"?>
<!-- Generator: Adobe Illustrator 17.1.0, SVG Export Plug-In . SVG Version: 6.00 Build 0)  -->
<!DOCTYPE svg PUBLIC "-//W3C//DTD SVG 1.1//EN" "http://www.w3.org/Graphics/SVG/1.1/DTD/svg11.dtd">
<svg version="1.1" id="Layer_1" xmlns="http://www.w3.org/2000/svg" xmlns:xlink="http://www.w3.org/1999/xlink" x="0px" y="0px"
	 viewBox="0 0 72 72" enable-background="new 0 0 72 72" xml:space="preserve">
<circle fill="#F15722" cx="36" cy="36" r="36"/>
<path fill="#FFFFFF" d="M52.8,35.1c0-9.2-7.5-16.6-16.6-16.6s-16.6,7.5-16.6,16.6c0,3.3,0.9,6.3,2.6,8.9h0l0,0
	c0.5,0.8,1.1,1.6,1.8,2.4l12.2,15.9l12.2-15.9c0.7-0.7,1.3-1.5,1.8-2.4l0,0h0C51.9,41.4,52.8,38.3,52.8,35.1z M36.2,25.1
	c2.1,0,3.8,1.7,3.8,3.8c0,2.1-1.7,3.8-3.8,3.8s-3.8-1.7-3.8-3.8C32.4,26.8,34.1,25.1,36.2,25.1z M42.1,44.5H30.3v-6.6
	c0-1.9,1.6-3.5,3.5-3.5h4.8c1.9,0,3.5,1.6,3.5,3.5V44.5z"/>
</svg>
