<?xml version="1.0" encoding="utf-8"?>
<!-- Generator: Adobe Illustrator 17.1.0, SVG Export Plug-In . SVG Version: 6.00 Build 0)  -->
<!DOCTYPE svg PUBLIC "-//W3C//DTD SVG 1.1//EN" "http://www.w3.org/Graphics/SVG/1.1/DTD/svg11.dtd">
<svg version="1.1" id="Layer_1" xmlns="http://www.w3.org/2000/svg" xmlns:xlink="http://www.w3.org/1999/xlink" x="0px" y="0px"
	 viewBox="0 0 72 72" enable-background="new 0 0 72 72" xml:space="preserve">
<circle cx="36" cy="36" r="36"/>
<g>
	<rect x="32.3" y="48.9" fill="#FFFFFF" width="7.9" height="7.6"/>
	<path fill="#FFFFFF" d="M36,15.4c-6.6,0-12,4.4-12,11.5h7.4c0-2.6,1.5-4.8,4.6-4.8c2.9,0,4.6,2,4.6,4.7c0,1.3-0.7,2.6-1.7,3.8
		l-4.2,5.4c-1.5,1.9-2.2,3.5-2.2,6v1.7H40v-1.2c0-1,0.5-2.2,1-2.9l4.2-5.6c1.6-2.1,2.8-4.3,2.8-7.2C48.1,19.6,42.4,15.4,36,15.4z"/>
</g>
</svg>
