<?xml version="1.0" encoding="utf-8"?>
<!-- Generator: Adobe Illustrator 17.1.0, SVG Export Plug-In . SVG Version: 6.00 Build 0)  -->
<!DOCTYPE svg PUBLIC "-//W3C//DTD SVG 1.1//EN" "http://www.w3.org/Graphics/SVG/1.1/DTD/svg11.dtd">
<svg version="1.1" xmlns="http://www.w3.org/2000/svg" xmlns:xlink="http://www.w3.org/1999/xlink" x="0px" y="0px"
	 viewBox="0 0 72 72" enable-background="new 0 0 72 72" xml:space="preserve">
<g id="Layer_1">
	<g>
		<path fill="#333333" d="M36,4c17.6,0,32,14.4,32,32S53.6,68,36,68S4,53.6,4,36S18.4,4,36,4 M36,0C16.1,0,0,16.1,0,36
			s16.1,36,36,36s36-16.1,36-36S55.9,0,36,0L36,0z"/>
	</g>
</g>
<g id="Layer_2">
	<g>
		<g id="Layer_1_1_">
			<circle fill="#565756" cx="36" cy="36" r="28.8"/>
		</g>
		<g id="Layer_2_1_">
			<path fill="#FFFFFF" d="M49.9,24.1c-3.4-2.6-7.8-2.7-11.1-0.4c-1.1,0.8-2,1.8-2.9,3c-0.9-1.2-1.8-2.2-2.9-3
				c-3.2-2.3-7.7-2.2-11.1,0.4c-4,3-5,8.1-2.6,12.4c1.3,2.2,2.9,4.1,4.6,5.9c3.7,4,7.6,7.8,11.6,11.5c0.2,0.2,0.2,0.2,0.4,0.2
				c0.1,0,0.2-0.1,0.4-0.2c4-3.8,7.9-7.5,11.6-11.5c1.7-1.8,3.4-3.8,4.6-5.9C55,32.2,54,27,49.9,24.1z M36.5,48.2
				c-0.3,0.6-1,1-1.7,1c-0.3,0-0.6-0.1-0.9-0.2c-1-0.5-1.3-1.7-0.8-2.6l3-5.5h-6.7l6.1-11.2c0.3-0.6,1-1,1.7-1c0.3,0,0.6,0.1,1,0.2
				c0.5,0.2,0.8,0.6,1,1.1c0.2,0.5,0.1,1-0.2,1.4l-3,5.5h6.7L36.5,48.2z"/>
		</g>
	</g>
</g>
</svg>
