<?xml version="1.0" encoding="utf-8"?>
<!-- Generator: Adobe Illustrator 17.1.0, SVG Export Plug-In . SVG Version: 6.00 Build 0)  -->
<!DOCTYPE svg PUBLIC "-//W3C//DTD SVG 1.1//EN" "http://www.w3.org/Graphics/SVG/1.1/DTD/svg11.dtd">
<svg version="1.1" id="Layer_1" xmlns="http://www.w3.org/2000/svg" xmlns:xlink="http://www.w3.org/1999/xlink" x="0px" y="0px"
	 viewBox="0 0 72 72" enable-background="new 0 0 72 72" xml:space="preserve">
<g>
	<path fill="#555655" d="M36,0C16.1,0,0,16.1,0,36s16.1,36,36,36s36-16.1,36-36S55.9,0,36,0z"/>
	<g>
		<path fill="#FFFFFF" d="M17.5,26.6l-6.9,18.9h3.8l1.1-3.3h6.7l1.1,3.3h3.8l-6.9-18.9H17.5z M16.6,39l2.4-6.9l2.3,6.9H16.6z"/>
		<path fill="#FFFFFF" d="M41.4,28.4c-1.2-1.2-3-1.8-5-1.8h-6.8v18.9h6.8c2,0,3.7-0.6,5-1.8c2.1-2.1,1.9-4.9,1.9-7.7
			S43.5,30.5,41.4,28.4z M38.8,41c-0.6,0.8-1.5,1.2-2.8,1.2h-2.8V29.9h2.8c1.3,0,2.1,0.4,2.8,1.2c0.7,0.8,0.8,2,0.8,4.9
			S39.5,40.1,38.8,41z"/>
		<path fill="#FFFFFF" d="M54.5,26.6h-2.9l-6.9,18.9h3.8l1.1-3.3h6.7l1.1,3.3h3.8L54.5,26.6z M50.8,39l2.4-6.9l2.3,6.9H50.8z"/>
	</g>
</g>
</svg>
