<?xml version="1.0" encoding="utf-8"?>
<!-- Generator: Adobe Illustrator 17.1.0, SVG Export Plug-In . SVG Version: 6.00 Build 0)  -->
<!DOCTYPE svg PUBLIC "-//W3C//DTD SVG 1.1//EN" "http://www.w3.org/Graphics/SVG/1.1/DTD/svg11.dtd">
<svg version="1.1" id="Layer_2" xmlns="http://www.w3.org/2000/svg" xmlns:xlink="http://www.w3.org/1999/xlink" x="0px" y="0px"
	 viewBox="0 0 72 72" enable-background="new 0 0 72 72" xml:space="preserve">
<circle fill="#82C341" cx="36" cy="36" r="36"/>
<g>
	<path fill="#FFFFFF" d="M22.9,12.1c2.1,0,3.9,1.7,3.9,3.9s-1.7,3.9-3.9,3.9c-2.1,0-3.9-1.7-3.9-3.9C19,13.9,20.8,12.1,22.9,12.1z
		 M30.7,36.7l-3.1-10.3h-0.9L32,44.7h-4.9V58c0,2.4-3.6,2.4-3.6,0V44.6h-1.1V58c0,2.4-3.7,2.4-3.7,0V44.6h-4.9L19,26.4h-0.8
		l-3.1,10.3C14.4,39,11.3,38,12,35.6l3.4-11.2c0.4-1.3,2-3.5,4.8-3.5h2.6h2.8c2.8,0,4.4,2.3,4.8,3.5l3.4,11.2
		C34.5,38,31.4,39,30.7,36.7z M48.8,12.2c2.2,0,4,1.8,4,4s-1.8,3.9-4,3.9s-3.9-1.8-3.9-3.9C44.9,13.9,46.6,12.2,48.8,12.2z
		 M58.1,38.3c0,2.4-3.4,2.4-3.4,0V27.1h-0.8v30.4c0,3.2-4.6,3.1-4.6,0V39.9h-0.8v17.6c0,3.1-4.6,3.2-4.6,0V27.1H43v11.1
		c0,2.3-3.5,2.3-3.5,0V26.1c0-2.8,2.3-5.1,5.1-5.1h8.3c3.1,0,5.1,2.6,5.1,5.2v12.1C58,38.3,58.1,38.3,58.1,38.3z"/>
</g>
</svg>
