<?xml version="1.0" encoding="utf-8"?>
<!-- Generator: Adobe Illustrator 16.0.0, SVG Export Plug-In . SVG Version: 6.00 Build 0)  -->
<!DOCTYPE svg PUBLIC "-//W3C//DTD SVG 1.1//EN" "http://www.w3.org/Graphics/SVG/1.1/DTD/svg11.dtd">
<svg version="1.1" id="Layer_1" xmlns="http://www.w3.org/2000/svg" xmlns:xlink="http://www.w3.org/1999/xlink" x="0px" y="0px"
	 width="1667.667px" height="1600px" viewBox="609.028 0 1667.667 1600" enable-background="new 609.028 0 1667.667 1600"
	 xml:space="preserve">
<g>
	<path fill="#CF3694" d="M1440,0C997.777,0,640,357.777,640,800s357.777,800,800,800s800-357.777,800-800S1882.223,0,1440,0z
		 M1760,795.556l-64.444-113.333l-102.223,442.222l102.223-311.111V1240h-251.111h-251.111V811.111l102.223,311.111L1193.333,680
		l-64.444,113.333l-171.111-82.222l137.778-262.223l55.556,128.889l46.666,44.445l-84.444-195.556l204.444-64.444
		c0,0,31.111,55.555,124.445,55.555c93.333,0,124.443-55.555,124.443-55.555l204.445,64.444l-84.445,195.556l51.111-44.445
		l55.556-128.889l137.778,264.444L1760,795.556z"/>
	<path fill="#FFFFFF" d="M1793.334,448.889l-55.557,128.89l-51.111,44.444l84.445-195.556l-204.445-64.444
		c0,0-31.109,55.556-124.443,55.556s-124.444-55.556-124.444-55.556l-204.443,64.444l84.443,195.556l-46.666-44.444l-55.556-128.89
		L957.777,711.111l171.11,82.222L1193.333,680l102.224,442.223l-102.224-311.11V1240h251.11h251.111V813.333l-102.223,311.111
		l102.223-442.223L1760,795.556l171.111-82.223L1793.334,448.889z"/>
</g>
</svg>
