<?xml version="1.0" encoding="utf-8"?>
<!-- Generator: Adobe Illustrator 16.0.0, SVG Export Plug-In . SVG Version: 6.00 Build 0)  -->
<!DOCTYPE svg PUBLIC "-//W3C//DTD SVG 1.1//EN" "http://www.w3.org/Graphics/SVG/1.1/DTD/svg11.dtd">
<svg version="1.1" id="Layer_1" xmlns="http://www.w3.org/2000/svg" xmlns:xlink="http://www.w3.org/1999/xlink" x="0px" y="0px"
	 width="612px" height="215px" viewBox="0 280.5 612 215" enable-background="new 0 280.5 612 215" xml:space="preserve">
<g>
	<path fill="#FFFFFF" d="M152.15,437.65h4.25l7.65,20.399h-4.25l-1.7-5.1h-8.5l-1.7,5.1H144.5L152.15,437.65z M154.7,441.9
		L154.7,441.9l-3.4,8.5h5.95L154.7,441.9z"/>
	<path fill="#FFFFFF" d="M167.45,442.75h3.399v1.7l0,0c0.851-1.7,3.4-2.55,4.25-2.55c1.7,0,3.4,0.85,4.25,2.55
		c0.851-1.7,2.55-2.55,5.101-2.55c3.399,0,5.1,2.55,5.1,5.949v9.351h-4.25v-9.351c0-1.699,0-3.399-2.55-3.399s-2.55,3.399-2.55,5.1
		v7.65h-4.25v-9.351c0-1.699,0-3.399-2.551-3.399c-2.55,0-2.55,3.399-2.55,5.1v7.65h-4.25v-14.45H167.45z"/>
	<path fill="#FFFFFF" d="M205.7,457.2c-1.7,0.85-3.4,0.85-5.101,0.85c-5.1,0-7.649-2.55-7.649-7.649c0-4.25,2.55-7.65,6.8-7.65
		c5.95,0,6.8,4.25,6.8,9.35h-10.2c0,2.551,1.7,3.4,4.25,3.4c1.7,0,3.4-0.85,5.101-1.7V457.2L205.7,457.2z M203.15,448.7
		c0-1.7-0.85-3.4-3.399-3.4s-3.4,1.7-3.4,3.4H203.15z"/>
	<path fill="#FFFFFF" d="M209.95,442.75h3.399v3.4l0,0c0-1.7,1.7-3.4,4.25-3.4h0.851V447c0,0-0.851,0-1.7,0
		c-3.4,0-3.4,4.25-3.4,5.95v5.95h-4.25v-16.15H209.95z"/>
	<path fill="#FFFFFF" d="M221,436.8h4.25v3.4H221V436.8z M221,442.75h4.25v15.3H221V442.75z"/>
	<path fill="#FFFFFF" d="M238.85,446.15c-0.85,0-1.7-0.851-2.55-0.851c-2.55,0-4.25,1.7-4.25,5.101c0,2.55,1.7,5.1,4.25,5.1
		c0.85,0,2.55,0,3.4-0.85v3.399c-0.851,0-2.551,0.851-4.25,0.851c-5.101,0-7.65-3.4-7.65-7.65s2.55-7.65,7.65-7.65
		c1.699,0,2.55,0,3.399,0.851V446.15z"/>
	<path fill="#FFFFFF" d="M243.1,443.6c1.7-0.85,3.4-0.85,5.101-0.85c4.25,0,6.8,1.7,6.8,5.95v1.7c0,1.699,0,2.55,0,3.399
		c0,0.851,0,2.55,0,3.4h-3.4c0-0.851,0-1.7,0-2.55l0,0c-0.85,1.699-2.55,2.55-4.25,2.55c-2.55,0-5.1-1.7-5.1-4.25
		s0.85-3.4,2.55-4.25c1.7-0.851,3.4-0.851,5.1-0.851h2.551c0-2.55-0.851-3.399-3.4-3.399c-1.7,0-3.4,0.85-4.25,1.7L243.1,443.6z
		 M247.35,455.5c0.851,0,2.55-0.85,2.55-1.7c0.851-0.85,0.851-1.7,0.851-3.399h-1.7c-1.7,0-4.25,0-4.25,2.55
		C244.8,454.65,245.65,455.5,247.35,455.5z"/>
	<path fill="#FFFFFF" d="M259.25,437.65h4.25l-2.55,7.649h-3.4L259.25,437.65z"/>
	<path fill="#FFFFFF" d="M273.7,446.15c-0.851,0-1.7-0.851-3.4-0.851c-0.85,0-2.55,0-2.55,1.7c0,2.55,6.8,0.85,6.8,5.95
		c0,3.399-3.4,5.1-5.95,5.1c-1.7,0-3.399,0-4.25-0.85v-3.4c0.851,0.851,2.55,0.851,4.25,0.851c0.851,0,2.55,0,2.55-1.7
		c0-2.55-6.8-0.851-6.8-6.8c0-3.4,2.55-5.101,5.95-5.101c1.7,0,3.4,0,4.25,0.851L273.7,446.15z"/>
	<path fill="#FFFFFF" d="M285.6,437.65h6.8l5.101,15.3l0,0l5.1-15.3h6.8v20.399h-4.25v-17l0,0l-5.1,17h-4.25l-5.1-17l0,0v17h-4.25
		V437.65H285.6z"/>
	<path fill="#FFFFFF" d="M320.449,442.75c4.25,0,7.65,3.4,7.65,7.65s-2.55,7.649-7.65,7.649c-5.1,0-7.649-3.399-7.649-7.649
		C311.949,445.3,315.35,442.75,320.449,442.75z M320.449,455.5c3.4,0,3.4-2.55,3.4-5.1c0-2.551-0.85-4.25-3.4-4.25
		c-2.55,0-3.399,2.55-3.399,4.25C316.199,452.95,317.05,455.5,320.449,455.5z"/>
	<path fill="#FFFFFF" d="M340,446.15c-0.851,0-1.7-0.851-3.4-0.851c-0.85,0-2.55,0-2.55,1.7c0,2.55,6.8,0.85,6.8,5.95
		c0,3.399-3.4,5.1-5.95,5.1c-1.7,0-3.4,0-4.25-0.85v-3.4c0.851,1.7,2.55,1.7,3.4,1.7c0.85,0,2.55,0,2.55-1.7
		c0-2.55-6.8-0.85-6.8-6.8c0-3.4,2.55-5.1,5.95-5.1c1.699,0,3.399,0,4.25,0.85V446.15z"/>
	<path fill="#FFFFFF" d="M345.1,446.15h-2.55V443.6h2.55V440.2l4.25-0.851v4.25h3.4v2.551h-3.4v6.8c0,1.7,0,2.55,1.7,2.55
		c0.85,0,1.7,0,1.7,0v3.4c-0.851,0-1.7,0-2.551,0c-3.399,0-5.1-1.7-5.1-5.101V446.15L345.1,446.15z"/>
	<path fill="#FFFFFF" d="M379.1,458.05c-1.7,0-3.4,0.851-4.25,0.851c-6.8,0-11.05-3.4-11.05-10.2s4.25-11.05,11.05-11.05
		c1.7,0,3.4,0,4.25,0.85v3.4c-1.7-0.851-2.55-0.851-4.25-0.851c-4.25,0-6.8,3.4-6.8,7.65s2.55,7.649,6.8,7.649
		c1.7,0,3.4,0,4.25-0.85V458.05z"/>
	<path fill="#FFFFFF" d="M388.449,442.75c4.25,0,7.65,3.4,7.65,7.65s-2.55,7.649-7.65,7.649c-5.1,0-7.649-3.399-7.649-7.649
		C380.8,445.3,384.199,442.75,388.449,442.75z M388.449,455.5c3.4,0,3.4-2.55,3.4-5.1c0-2.551-0.85-4.25-3.4-4.25
		c-2.55,0-3.399,2.55-3.399,4.25C385.05,452.95,385.05,455.5,388.449,455.5z"/>
	<path fill="#FFFFFF" d="M399.5,442.75h3.399v1.7l0,0c0.851-1.7,2.55-2.55,5.101-2.55c3.399,0,5.1,2.55,5.1,5.949v9.351h-4.25v-7.65
		c0-1.7,0-4.25-2.55-4.25s-3.4,3.4-3.4,5.101v7.649H399.5V442.75z"/>
	<path fill="#FFFFFF" d="M415.65,442.75h4.25l3.4,11.05l0,0l3.399-11.05h4.25L425,458.05h-4.25L415.65,442.75z"/>
	<path fill="#FFFFFF" d="M445.4,457.2c-1.7,0.85-3.399,0.85-5.1,0.85c-5.101,0-7.65-2.55-7.65-7.649c0-4.25,2.55-7.65,6.8-7.65
		c5.95,0,6.801,4.25,6.801,9.35h-10.2c0,2.551,1.7,3.4,4.25,3.4c1.7,0,3.399-0.85,5.1-1.7V457.2L445.4,457.2z M442.85,448.7
		c0-1.7-0.85-3.4-3.4-3.4c-2.55,0-3.399,1.7-3.399,3.4H442.85z"/>
	<path fill="#FFFFFF" d="M449.65,442.75h3.4v1.7l0,0c0.85-1.7,2.55-2.55,5.1-2.55c3.4,0,5.101,2.55,5.101,5.949v9.351H459v-7.65
		c0-1.7,0-4.25-2.551-4.25c-2.55,0-3.399,3.4-3.399,5.101v7.649h-4.25v-15.3H449.65z"/>
	<path fill="#FFFFFF" d="M467.5,436.8h4.25v3.4h-4.25V436.8z M467.5,442.75h4.25v15.3h-4.25V442.75z"/>
	<path fill="#FFFFFF" d="M487.9,457.2c-1.7,0.85-3.399,0.85-5.1,0.85c-5.101,0-7.65-2.55-7.65-7.649c0-4.25,2.55-7.65,6.8-7.65
		c5.95,0,6.801,4.25,6.801,9.35h-10.2c0,2.551,1.7,3.4,4.25,3.4c1.7,0,3.399-0.85,5.1-1.7V457.2L487.9,457.2z M485.35,448.7
		c0-1.7-0.85-3.4-3.4-3.4c-2.55,0-3.399,1.7-3.399,3.4H485.35z"/>
	<path fill="#FFFFFF" d="M492.15,442.75h3.4v1.7l0,0c0.85-1.7,2.55-2.55,5.1-2.55c3.4,0,5.101,2.55,5.101,5.949v9.351h-4.25v-7.65
		c0-1.7,0-4.25-2.551-4.25c-2.55,0-3.399,3.4-3.399,5.101v7.649h-4.25v-15.3H492.15z"/>
	<path fill="#FFFFFF" d="M511.699,446.15h-2.55V443.6h2.55V440.2l4.25-0.851v4.25h2.551v2.551h-3.4v6.8c0,1.7,0,2.55,1.7,2.55
		c0.85,0,1.7,0,1.7,0v3.4c-0.851,0-1.7,0-2.551,0c-3.399,0-5.1-1.7-5.1-5.101v-7.649H511.699z"/>
	<path fill="#FFFFFF" d="M530.4,437.65h6.8c2.551,0,6.801,0.85,6.801,5.1c0,2.55-1.7,4.25-4.25,4.25l0,0c2.55,0,5.1,2.55,5.1,4.25
		c0,5.1-4.25,5.95-6.8,5.95h-6.8v-19.55H530.4z M533.8,446.15h1.7c1.699,0,4.25,0,4.25-2.551c0-2.55-1.7-2.55-4.25-2.55h-1.7V446.15
		z M533.8,454.65h1.7c1.699,0,4.25-0.851,4.25-2.551c0-2.55-2.551-3.399-4.25-3.399h-1.7V454.65z"/>
	<path fill="#FFFFFF" d="M548.25,443.6c1.699-0.85,3.399-0.85,5.1-0.85c4.25,0,6.8,1.7,6.8,5.95v1.7c0,1.699,0,2.55,0,3.399
		c0,0.851,0,2.55,0,3.4h-3.399c0-0.851,0-1.7,0-2.55l0,0c-0.851,1.699-2.551,2.55-4.25,2.55c-2.551,0-5.101-1.7-5.101-4.25
		s0.851-3.4,2.55-4.25c1.7-0.851,3.4-0.851,5.101-0.851h2.55c0-2.55-0.85-3.399-3.4-3.399c-1.699,0-3.399,0.85-4.25,1.7
		L548.25,443.6z M552.5,455.5c0.85,0,2.55-0.85,2.55-1.7c0.85-0.85,0.85-1.7,0.85-3.399h-1.7c-1.699,0-4.25,0-4.25,2.55
		C549.949,454.65,551.65,455.5,552.5,455.5z"/>
	<path fill="#FFFFFF" d="M563.55,442.75h3.399v1.7l0,0c0.851-1.7,2.551-2.55,5.101-2.55c3.399,0,5.1,2.55,5.1,5.949v9.351h-4.25
		v-7.65c0-1.7,0-4.25-2.55-4.25s-3.4,3.4-3.4,5.101v7.649h-4.25v-15.3H563.55z"/>
	<path fill="#FFFFFF" d="M581.4,435.95h4.25v12.75l0,0l5.101-5.95H595l-5.95,6.8l5.95,8.5H589.9l-5.1-7.649l0,0v7.649h-4.25v-22.1
		H581.4z"/>
	<path fill="#FFFFFF" d="M605.199,434.25c3.4,0,6.801,3.4,6.801,6.8c0,3.4-3.4,6.8-6.801,6.8c-3.399,0-6.8-3.399-6.8-6.8
		C598.4,437.65,600.949,434.25,605.199,434.25z M605.199,446.15c2.551,0,5.101-2.551,5.101-5.101c0-3.399-2.551-5.1-5.101-5.1
		s-5.1,2.55-5.1,5.1C600.1,444.45,602.65,446.15,605.199,446.15z M602.65,437.65h2.55c1.7,0,3.4,0.85,3.4,2.55s-0.85,1.7-1.7,1.7
		l1.7,3.399h-1.7l-1.7-3.399h-0.85v3.399h-1.7V437.65L602.65,437.65z M605.199,440.2c0.851,0,1.7,0,1.7-0.851
		c0-0.85-0.85-0.85-1.7-0.85h-0.85v1.7H605.199L605.199,440.2z"/>
	<rect x="5.95" y="339.9" fill="#FFFFFF" width="103.699" height="91.8"/>
	<path fill="#54B948" d="M0,333.95v103.7h115.6v-103.7H0L0,333.95z M76.5,414.7H49.3v-48.45h13.6v39.95h12.75
		c9.351,0,12.75-5.95,12.75-22.1s-4.25-21.25-13.6-21.25H45.05v51.85H32.3v-51.85H11.9v-8.5h67.15c16.15,0,23.8,8.5,23.8,29.75
		C102.85,411.3,91.8,414.7,76.5,414.7L76.5,414.7z"/>
	<path fill="#FFFFFF" d="M143.65,354.35H171.7c7.649,0,15.3,2.55,15.3,11.05c0,5.95-3.4,9.35-9.351,11.05l0,0
		c5.95,0.85,10.2,5.95,10.2,10.2c0,11.05-9.35,11.9-17.85,11.9h-25.5v-44.2H143.65z M159.8,371.35h4.25c2.55,0,5.95-0.85,5.95-4.25
		s-2.55-4.25-5.95-4.25h-4.25V371.35z M159.8,389.2h4.25c3.4,0,6.8-0.85,6.8-4.25c0-3.4-3.399-4.25-5.95-4.25h-4.25v8.5H159.8z"/>
	<path fill="#FFFFFF" d="M194.65,367.1c5.101-1.7,7.65-1.7,13.601-1.7c9.35,0,20.399,1.7,20.399,13.6v19.55H214.2v-5.1l0,0
		c-2.551,3.399-5.95,5.1-11.051,5.1c-5.949,0-11.899-2.55-11.899-9.35c0-10.2,9.35-11.9,17-11.9c2.55,0,5.1,0,5.95,0.85
		c0-4.25-4.25-5.1-8.5-5.1c-3.4,0-7.65,0.85-11.051,2.55V367.1L194.65,367.1z M214.2,384.1h-1.7c-3.4,0-6.8,0-6.8,3.4
		c0,2.55,0.85,3.4,3.399,3.4c3.4,0,5.101-3.4,5.101-5.95V384.1z"/>
	<path fill="#FFFFFF" d="M233.75,365.4h15.3v5.95l0,0c1.7-4.25,5.95-6.8,11.05-6.8c8.5,0,11.9,4.25,11.9,11.05v22.95h-17v-18.7
		c0-1.7,0-4.25-2.55-4.25c-2.551,0-2.551,2.55-2.551,4.25v18.7H233.75V365.4L233.75,365.4z"/>
	<path fill="#FFFFFF" d="M293.25,379L293.25,379l9.35-12.75h17.85L309.4,380.7l11.9,18.7h-18.7l-9.35-16.15l0,0v16.15H277.1V351.8
		h16.15V379z"/>
</g>
</svg>
