<?xml version="1.0" encoding="utf-8"?>
<!-- Generator: Adobe Illustrator 16.0.0, SVG Export Plug-In . SVG Version: 6.00 Build 0)  -->
<!DOCTYPE svg PUBLIC "-//W3C//DTD SVG 1.1//EN" "http://www.w3.org/Graphics/SVG/1.1/DTD/svg11.dtd">
<svg version="1.1" id="Layer_1" xmlns="http://www.w3.org/2000/svg" xmlns:xlink="http://www.w3.org/1999/xlink" x="0px" y="0px"
	 width="612px" height="116px" viewBox="0 338.5 612 116" enable-background="new 0 338.5 612 116" xml:space="preserve">
<g>
	<rect x="4.25" y="355.2" fill="#FFFFFF" width="111.35" height="81.6"/>
	<path fill="#54B948" d="M0.85,343.3v106.25H119V343.3H0.85z M78.2,426.6H50.15V376.45H64.6V418.1H78.2c9.35,0,13.6-6.8,13.6-22.95
		c0-17-4.25-21.25-13.6-21.25H46.75v53.55H32.3V373.9H11.9v-8.5h69.7c17,0,24.65,8.5,24.65,30.6
		C106.25,423.2,94.35,426.6,78.2,426.6z"/>
	<path fill="#FFC425" d="M182.75,428.3c-22.95,0-39.95-12.75-39.95-31.45c0-19.55,17-33.149,39.95-33.149
		c16.149,0,27.2,5.1,33.149,15.3l0.851,0.85l-18.7,7.65v-0.85c-3.4-5.1-7.65-7.65-13.6-7.65c0,0-0.851,0-1.7,0
		c-12.75,0.85-17.851,9.35-17.851,17.85c0,8.5,5.95,17,18.7,17c7.65,0,12.75-3.399,14.45-8.5h-15.3v-13.6H221v0.85
		c0,8.5-0.851,16.15-7.65,23.8C206.55,424.05,196.35,428.3,182.75,428.3L182.75,428.3z"/>
	<path fill="#FFC425" d="M183.6,364.55c14.45,0,26.351,4.25,32.3,15.3l-17,6.8c-3.399-5.1-8.5-7.65-14.449-7.65
		c-0.851,0-0.851,0-1.7,0c-12.75,0.85-18.7,9.35-18.7,18.7c0,9.35,6.8,17.85,19.55,17.85c8.5,0,14.45-3.399,15.3-10.2h-15.3V393.45
		H221c0,8.5-0.851,16.149-7.65,22.95c-6.8,7.649-17.85,11.05-29.75,11.05c-22.95,0-39.1-12.75-39.1-30.601
		C144.5,378.15,159.8,364.55,183.6,364.55 M183.6,365.4c-22.95,0-38.25,12.75-38.25,31.45c0,17.851,15.3,29.75,37.4,29.75
		c12.75,0,22.95-4.25,28.899-11.05c5.95-6.8,6.801-13.6,6.801-21.25H183.6v9.351h15.3v1.699c-0.85,6.801-6.8,11.051-16.149,11.051
		c-13.601,0-20.4-10.2-20.4-19.551c0-9.35,5.95-18.7,20.4-19.55c0.85,0,0.85,0,1.7,0c6.8,0,11.05,2.55,15.3,7.65l15.3-5.95
		C208.25,369.65,198.05,365.4,183.6,365.4L183.6,365.4z"/>
	<path fill="#FFC425" d="M306,426.6H283.9l-5.1-10.199h-24.65l-5.1,10.199h-22.1l28.899-60.35h22.101L306,426.6L306,426.6z
		 M260.1,402.8h12.75l-5.95-15.3L260.1,402.8L260.1,402.8z"/>
	<path fill="#FFC425" d="M277.1,367.1l27.2,58.65h-20.4l-5.1-10.2h-26.35l-5.101,10.2H226.95L255,367.1H277.1 M259.25,403.65h15.3
		l-7.65-18.7l0,0L259.25,403.65 M276.25,368.8H256.7L229.5,424.9h17.85l5.101-10.2h28.05l5.1,10.2h17.85L276.25,368.8L276.25,368.8z
		 M257.55,405.35l8.5-21.25h1.7l8.5,21.25H257.55L257.55,405.35z"/>
	<path fill="#FFC425" d="M382.5,426.6H357l-17-21.25v21.25h-20.4v-60.35h28.9c16.149,0,26.35,6.8,26.35,18.7
		c0,8.5-5.95,15.3-15.3,17L382.5,426.6L382.5,426.6z M340,392.6h0.85c8.5,0,11.9-1.7,11.9-6.8c0-4.25-3.4-6.8-11.9-6.8H340V392.6
		L340,392.6z"/>
	<path fill="#FFC425" d="M348.5,367.1c14.449,0,25.5,5.1,25.5,17.85c0,7.65-5.95,15.3-16.15,16.149L380.8,424.9H357L339.15,402.8
		l0,0V424.9h-18.7v-58.65H348.5 M339.15,393.45h1.7c5.95,0,12.75-0.85,12.75-7.65c0-5.95-6.8-7.65-12.75-7.65h-1.7V393.45
		 M348.5,368.8h-27.2V424.9h16.149v-21.25V402.8h0.851l0,0h1.7v0.851l17.85,22.1h20.4L357,402.8l-1.7-1.7h2.55
		c9.35-1.699,15.3-7.649,15.3-15.3C372.3,370.5,356.15,368.8,348.5,368.8L348.5,368.8z M338.3,394.3v-17h3.399
		c4.25,0,14.45,0,14.45,8.5s-10.2,8.5-14.45,8.5H338.3L338.3,394.3z"/>
	<path fill="#FFC425" d="M423.3,426.6h-28.05v-60.35h28.05c20.399,0,37.399,13.6,37.399,29.75
		C460.699,413,443.699,426.6,423.3,426.6L423.3,426.6z M416.5,412.15h3.399c5.101,0,20.4-0.851,20.4-15.301
		c0-9.35-7.65-15.3-19.55-15.3h-4.25V412.15L416.5,412.15z"/>
	<path fill="#FFC425" d="M423.3,367.1c20.399,0,36.55,12.75,36.55,28.9c0,16.15-17,28.9-36.55,28.9h-27.2v-58.65h27.2 M415.65,413
		h4.25c11.05,0,21.25-5.1,21.25-16.15c0-10.2-8.5-16.149-20.399-16.149h-4.25V413 M423.3,368.8h-25.5V424.9h25.5
		c19.55,0,35.7-12.75,35.7-28.051C459,380.7,442.85,368.8,423.3,368.8L423.3,368.8z M413.949,413.85V379h5.95
		C433.5,379,442,385.8,442,396.85c0,11.051-8.5,17.851-22.101,17.851h-5.95V413.85z"/>
	<polygon fill="#FFC425" points="524.449,426.6 476.85,426.6 476.85,366.25 524.449,366.25 524.449,380.7 495.55,380.7 
		495.55,389.2 523.6,389.2 523.6,403.65 495.55,403.65 495.55,412.15 524.449,412.15 	"/>
	<path fill="#FFC425" d="M523.6,367.1v12.75h-29.75v9.35h28.05v12.75h-28.05V413h29.75v12.75h-45.9V367.1H523.6 M522.75,367.95
		h-44.2v56.1h44.2v-10.2H493V401.1h28.05v-10.2H493V379h29.75V367.95L522.75,367.95z"/>
	<polygon fill="#FFC425" points="611.15,426.6 592.449,426.6 561.85,391.75 561.85,426.6 543.15,426.6 543.15,366.25 561.85,366.25 
		592.449,401.1 592.449,366.25 611.15,366.25 	"/>
	<path fill="#FFC425" d="M610.3,367.1v58.65h-17.851L561,390.05l0,0v35.7h-17V367.1h17l32.3,35.7l0,0v-35.7H610.3 M609.449,368.8
		h-15.3v35.7h-1.7L561,368.8h-16.15V424.9h15.3v-35.7h1.7l32.3,35.7h16.15V368.8H609.449z"/>
</g>
<g>
	<g>
		<g>
			<g>
				<g>
					<rect x="4.25" y="353.5" fill="#FFFFFF" width="109.649" height="85"/>
				</g>
				<g>
					<path fill="#3FAE2A" d="M0,343.3v106.25H118.15V343.3H0z M78.2,426.6H50.15V376.45H64.6V418.1H78.2c9.35,0,13.6-6.8,13.6-22.95
						c0-17-4.25-21.25-13.6-21.25H45.9v53.55H32.3V373.9H11.9v-8.5h69.7c17,0,24.65,8.5,24.65,30.6
						C106.25,423.2,94.35,426.6,78.2,426.6z"/>
				</g>
			</g>
		</g>
	</g>
	<g>
		<g>
			<g>
				<path fill="#FFC627" d="M182.75,428.3c-22.95,0-39.95-12.75-39.95-31.45c0-19.55,17-33.149,39.95-33.149
					c16.149,0,27.2,5.1,33.149,15.3l0.851,0.85H215.9l-17,6.8h-0.85v-0.85c-3.4-5.1-7.65-7.65-13.6-7.65c0,0-0.851,0-1.7,0
					C170,379,164.9,387.5,164.9,396s5.95,17,18.7,17c7.65,0,12.75-3.4,14.45-8.5H183.6h-0.85v-0.85v-11.9v-0.85h0.85H221l0,0v0.85
					c0,8.5-0.851,16.15-7.65,23.8C206.55,424.05,195.5,428.3,182.75,428.3L182.75,428.3z"/>
				<path fill="#FFC627" d="M182.75,364.55c14.45,0,26.35,4.25,32.3,15.3l-17,6.8c-3.4-5.1-8.5-7.65-14.45-7.65
					c-0.85,0-0.85,0-1.7,0c-12.75,0.85-18.699,9.35-18.699,18.7c0,9.35,6.8,17.85,19.55,17.85c8.5,0,14.45-3.399,15.3-10.2h-15.3
					V393.45h37.399c0,8.5-0.85,16.149-7.649,22.95c-6.8,7.649-17.851,11.05-29.75,11.05c-22.95,0-39.101-12.75-39.101-30.601
					C143.65,378.15,159.8,364.55,182.75,364.55 M182.75,362.85c-24.65,0-40.8,13.6-40.8,34c0,19.551,17,32.301,40.8,32.301
					c13.6,0,24.649-4.25,31.45-11.9c6.8-7.65,7.649-15.3,7.649-23.8v-1.7h-1.7H182.75h-1.7v1.7v11.899v1.7h1.7h12.75
					c-1.7,4.25-5.95,6.8-12.75,6.8c-11.05,0-17.851-8.5-17.851-16.149c0-7.65,5.101-16.15,17-17h0.851c5.95,0,10.2,2.55,12.75,6.8
					l0.85,0.85l1.7-0.85l17-6.8l1.7-0.85l-0.851-1.7C210.8,367.95,199.75,362.85,182.75,362.85L182.75,362.85z"/>
				<path fill="#FFC627" d="M182.75,364.55c14.45,0,26.35,4.25,32.3,15.3l-17,6.8c-3.4-5.1-8.5-7.65-14.45-7.65
					c-0.85,0-0.85,0-1.7,0c-12.75,0.85-18.699,9.35-18.699,18.7c0,9.35,6.8,17.85,19.55,17.85c8.5,0,14.45-3.399,15.3-10.2h-15.3
					V393.45h37.399c0,8.5-0.85,16.149-7.649,22.95c-6.8,7.649-17.851,11.05-29.75,11.05c-22.95,0-39.101-12.75-39.101-30.601
					C143.65,378.15,159.8,364.55,182.75,364.55 M182.75,366.25c-22.101,0-37.4,12.75-37.4,30.6c0,17,15.3,28.9,37.4,28.9
					c12.75,0,22.1-3.4,28.899-11.05c5.95-6.8,6.801-12.75,6.801-20.4h-34v8.5h13.6h1.7v1.7c-0.851,6.8-7.65,11.9-17,11.9
					c-13.601,0-21.25-10.2-21.25-20.4c0-9.35,6.8-19.55,20.399-20.4c0.851,0,0.851,0,1.7,0c6.8,0,11.05,2.55,15.3,7.65l14.45-5.1
					C207.4,370.5,197.2,366.25,182.75,366.25L182.75,366.25z"/>
				<path d="M182.75,364.55c14.45,0,26.35,4.25,32.3,15.3l-17,6.8c-3.4-5.1-8.5-7.65-14.45-7.65c-0.85,0-0.85,0-1.7,0
					c-12.75,0.85-18.699,9.35-18.699,18.7c0,9.35,6.8,17.85,19.55,17.85c8.5,0,14.45-3.399,15.3-10.2h-15.3V393.45h37.399
					c0,8.5-0.85,16.149-7.649,22.95c-6.8,7.649-17.851,11.05-29.75,11.05c-22.95,0-39.101-12.75-39.101-30.601
					C143.65,378.15,159.8,364.55,182.75,364.55 M182.75,365.4c-22.95,0-38.25,12.75-38.25,31.45c0,17.851,15.3,29.75,37.399,29.75
					c12.75,0,22.95-4.25,28.9-11.05s6.8-13.6,6.8-21.25h-34.85v9.351h14.45h1.699v1.699c-0.85,6.801-6.8,11.051-16.149,11.051
					c-13.601,0-20.4-10.2-20.4-19.551c0-9.35,5.95-18.7,20.4-19.55c0.85,0,0.85,0,1.7,0c6.8,0,11.05,2.55,15.3,7.65l15.3-5.95
					C208.25,369.65,198.05,365.4,182.75,365.4L182.75,365.4z"/>
			</g>
		</g>
		<g>
			<path fill="#FFC627" d="M305.15,426.6h-1.7H283.05h-0.85v-0.85l-4.25-9.35H253.3l-5.1,9.35v0.85h-0.851H226.95h-1.7l0.85-0.85
				l28.05-58.65v-0.85H255H275.4h0.851v0.85l27.199,58.65L305.15,426.6L305.15,426.6z M260.1,402.8h12.75l-6.8-15.3L260.1,402.8
				L260.1,402.8z"/>
			<path fill="#FFC627" d="M277.1,367.1l27.2,58.65h-20.4l-5.1-10.2h-26.35l-5.101,10.2H226.95L255,367.1H277.1 M258.4,403.65H273.7
				l-7.65-18.7l0,0L258.4,403.65 M277.95,365.4H277.1H256.7H255v0.85l-28.05,58.65l-0.851,2.55h2.55h20.4h0.85l0.851-0.851
				l4.25-9.35h23.8l4.25,9.35l0.85,0.851h0.851h20.399h2.55L306,424.9l-27.2-58.65L277.95,365.4L277.95,365.4z M260.95,401.95
				l5.1-12.75l5.1,12.75H260.95L260.95,401.95z"/>
			<path fill="#FFC627" d="M277.1,367.1l27.2,58.65h-20.4l-5.1-10.2h-26.35l-5.101,10.2H226.95L255,367.1H277.1 M258.4,403.65H273.7
				l-7.65-18.7l0,0L258.4,403.65 M275.4,368.8H256.7l-26.351,54.4h16.15l4.25-9.351l0.85-0.85h0.851h26.35h1.7l0.85,0.85l4.25,9.351
				h16.15L275.4,368.8L275.4,368.8z M255.85,405.35l0.851-2.55l7.649-18.7l0.851-0.85h0.85l0,0h0.85l0.851,0.85l7.649,18.7
				l0.851,2.55h-2.55H258.4H255.85L255.85,405.35z"/>
			<path d="M277.1,367.1l27.2,58.65h-20.4l-5.1-10.2h-26.35l-5.101,10.2H226.95L255,367.1H277.1 M258.4,403.65H273.7l-7.65-18.7l0,0
				L258.4,403.65 M276.25,368.8H256.7L229.5,424.9h17.85l5.101-9.351v-0.85h0.85h26.35h0.851v0.85l4.25,9.351h17.85L276.25,368.8
				L276.25,368.8z M256.7,405.35l0.85-1.699l7.65-18.7v-0.85h0.85l0,0h0.85v0.85l7.65,18.7l0.85,1.699H273.7H258.4H256.7
				L256.7,405.35z"/>
		</g>
		<g>
			<path fill="#FFC627" d="M382.5,426.6h-1.7H357l0,0l0,0l-17-21.25v20.4v0.85h-0.851h-18.7h-0.85v-0.85V367.1v-0.85h0.85H348.5
				c16.149,0,26.35,6.8,26.35,18.7c0,8.5-5.95,15.3-15.3,17l22.1,22.95L382.5,426.6L382.5,426.6z M340,392.6h0.85
				c8.5,0,11.9-1.7,11.9-6.8c0-4.25-3.4-6.8-11.9-6.8H340V392.6L340,392.6z"/>
			<path fill="#FFC627" d="M348.5,367.1c14.449,0,25.5,5.1,25.5,17.85c0,7.65-5.95,15.3-16.15,16.149L380.8,424.9H357L339.15,402.8
				l0,0V424.9h-18.7v-58.65H348.5 M339.15,393.45h1.7c5.95,0,12.75-0.85,12.75-7.65c0-5.95-6.8-7.65-12.75-7.65h-1.7V393.45
				 M348.5,365.4h-28.051h-1.699v1.7v58.65v1.7h1.699h18.7h1.7v-1.7V407.9l15.3,18.699L357,427.45l0,0h23.8h4.25l-2.55-2.55
				l-20.4-21.25c8.5-2.551,14.45-9.351,14.45-17.851C374.85,373.05,364.65,365.4,348.5,365.4L348.5,365.4z M340.85,380.7
				L340.85,380.7c10.2,0,11.05,2.55,11.05,5.1c0,2.55-1.7,5.1-11.05,5.1l0,0V380.7L340.85,380.7z"/>
			<path fill="#FFC627" d="M348.5,367.1c14.449,0,25.5,5.1,25.5,17.85c0,7.65-5.95,15.3-16.15,16.149L380.8,424.9H357L339.15,402.8
				l0,0V424.9h-18.7v-58.65H348.5 M339.15,393.45h1.7c5.95,0,12.75-0.85,12.75-7.65c0-5.95-6.8-7.65-12.75-7.65h-1.7V393.45
				 M348.5,368.8H322.15v54.4h15.3v-20.4v-1.7h1.7l0,0H340l0.85,0.851l17,22.1h18.7l-20.4-21.25l-2.55-2.55l3.4-0.85
				c8.5-0.851,14.449-6.8,14.449-14.45C371.449,370.5,355.3,368.8,348.5,368.8L348.5,368.8z M337.449,395.15v-1.7V379v-1.7h1.7h1.7
				c3.4,0,14.45,0,14.45,9.35S344.25,396,340.85,396h-1.7h-1.7V395.15z"/>
			<path d="M348.5,367.1c14.449,0,25.5,5.1,25.5,17.85c0,7.65-5.95,15.3-16.15,16.149L380.8,424.9H357L339.15,402.8l0,0V424.9h-18.7
				v-58.65H348.5 M339.15,393.45h1.7c5.95,0,12.75-0.85,12.75-7.65c0-5.95-6.8-7.65-12.75-7.65h-1.7V393.45 M348.5,368.8h-27.2
				V424.9h16.149v-21.25V402.8h0.851l0,0h0.85v0.851l17.85,22.1h20.4L357,402.8l-1.7-1.7h2.55c9.35-1.699,15.3-7.649,15.3-15.3
				C372.3,370.5,355.3,368.8,348.5,368.8L348.5,368.8z M337.449,394.3v-0.85V379v-0.85h0.851h1.7c4.25,0,14.449,0,14.449,8.5
				s-10.199,8.5-14.449,8.5h-1.7h-0.851V394.3z"/>
		</g>
		<g>
			<path fill="#FFC627" d="M422.449,426.6H395.25H394.4v-0.85V367.1v-0.85h0.851h27.199c20.4,0,37.4,13.6,37.4,29.75
				C460.699,413,443.699,426.6,422.449,426.6L422.449,426.6z M415.65,412.15h3.4c5.1,0,20.399-0.851,20.399-15.301
				c0-9.35-7.649-15.3-19.55-15.3H416.5v30.601H415.65z"/>
			<path fill="#FFC627" d="M422.449,367.1c20.4,0,36.551,12.75,36.551,28.9c0,16.15-17,28.9-36.551,28.9H395.25v-58.65h27.199
				 M414.8,413h4.25c11.05,0,21.25-5.1,21.25-16.15c0-10.2-8.5-16.149-20.4-16.149h-4.25V413 M422.449,365.4H395.25h-1.7v1.7v58.65
				v1.7h1.7h27.199c21.25,0,38.25-13.601,38.25-30.601C461.55,379.85,443.699,365.4,422.449,365.4L422.449,365.4z M416.5,381.55
				h2.55c11.899,0,18.7,5.95,18.7,14.45c0,13.6-14.45,14.45-19.551,14.45H416.5V381.55L416.5,381.55z"/>
			<path fill="#FFC627" d="M422.449,367.1c20.4,0,36.551,12.75,36.551,28.9c0,16.15-17,28.9-36.551,28.9H395.25v-58.65h27.199
				 M414.8,413h4.25c11.05,0,21.25-5.1,21.25-16.15c0-10.2-8.5-16.149-20.4-16.149h-4.25V413 M422.449,368.8H397.8v54.4h24.649
				C442,423.2,457.3,411.3,457.3,396C458.15,381.55,442,368.8,422.449,368.8L422.449,368.8z M413.1,414.7V413v-32.3V379h1.7h4.25
				c13.6,0,22.1,6.8,22.1,17.85c0,11.051-8.5,17.851-22.95,17.851h-4.25H413.1L413.1,414.7z"/>
			<path d="M422.449,367.1c20.4,0,36.551,12.75,36.551,28.9c0,16.15-17,28.9-36.551,28.9H395.25v-58.65h27.199 M414.8,413h4.25
				c11.05,0,21.25-5.1,21.25-16.15c0-10.2-8.5-16.149-20.4-16.149h-4.25V413 M422.449,368.8h-25.5V424.9h25.5
				c19.551,0,35.7-12.75,35.7-28.051C458.15,380.7,442.85,368.8,422.449,368.8L422.449,368.8z M413.949,413.85V413v-32.3V379h0.851
				h4.25c13.6,0,22.1,6.8,22.1,17.85c0,11.051-8.5,17.851-22.1,17.851h-4.25h-0.851V413.85z"/>
		</g>
		<g>
			<g>
				<polygon fill="#FFC627" points="524.449,426.6 523.6,426.6 476.85,426.6 476,426.6 476,425.75 476,367.1 476,366.25 
					476.85,366.25 523.6,366.25 524.449,366.25 524.449,367.1 524.449,379.85 524.449,380.7 523.6,380.7 494.699,380.7 
					494.699,389.2 521.9,389.2 522.75,389.2 522.75,390.05 522.75,402.8 522.75,403.65 521.9,403.65 494.699,403.65 494.699,412.15 
					523.6,412.15 524.449,412.15 524.449,413 524.449,425.75 				"/>
				<path fill="#FFC627" d="M523.6,367.1v12.75h-29.75v9.35h28.05v12.75h-28.05V413h29.75v12.75h-45.9V367.1H523.6 M525.3,365.4
					h-1.7h-45.9h-1.7v1.7v58.65v1.7h1.7h45.9h1.7v-1.7V413v-1.7h-1.7h-28.05v-6.8h26.35h1.7v-1.7v-12.75v-1.7h-1.7h-26.35v-5.95
					h28.05h1.7v-1.7v-12.75V365.4L525.3,365.4z"/>
				<path fill="#FFC627" d="M523.6,367.1v12.75h-29.75v9.35h28.05v12.75h-28.05V413h29.75v12.75h-45.9V367.1H523.6 M521.9,368.8
					h-42.5v54.4h42.5v-9.351h-28.05h-1.7V413v-10.2v-1.7h1.7h26.35v-9.35h-26.35h-1.7v-1.7v-9.35V379h1.7h28.05V368.8L521.9,368.8z"
					/>
				<path d="M523.6,367.1v12.75h-29.75v9.35h28.05v12.75h-28.05V413h29.75v12.75h-45.9V367.1H523.6 M522.75,367.95h-44.2v56.1h44.2
					v-10.2h-28.051H493V413v-10.2v-0.85h0.85h27.2v-10.2h-27.2H493v-0.85v-9.35V379h0.85h28.05v-11.05H522.75z"/>
			</g>
		</g>
		<g>
			<g>
				<polygon fill="#FFC627" points="611.15,426.6 610.3,426.6 592.449,426.6 592.449,426.6 592.449,426.6 561.85,391.75 
					561.85,425.75 561.85,426.6 561,426.6 543.15,426.6 542.3,426.6 542.3,425.75 542.3,367.1 542.3,366.25 543.15,366.25 
					561,366.25 561,366.25 561,367.1 591.6,401.1 591.6,367.1 591.6,366.25 592.449,366.25 610.3,366.25 611.15,366.25 
					611.15,367.1 611.15,425.75 				"/>
				<path fill="#FFC627" d="M610.3,367.1v58.65h-17.851L561,390.05l0,0v35.7H543.15V367.1H561l32.3,35.7l0,0v-35.7H610.3 M612,365.4
					h-1.7h-17.851h-1.699v1.7v31.45l-28.9-32.3L561,365.4l0,0H543.15h-1.7v1.7v58.65v1.7h1.7H561h1.699v-1.7V394.3l28.9,32.3
					l0.85,0.851h0.851h17.85H612v-1.7V367.1V365.4L612,365.4z"/>
				<path fill="#FFC627" d="M610.3,367.1v58.65h-17.851L561,390.05l0,0v35.7H543.15V367.1H561l32.3,35.7l0,0v-35.7H610.3
					 M608.6,368.8H595v34v1.7h-1.7l0,0h-0.851h-0.85l-31.45-34.85h-15.3v54.4h13.6v-34v-1.7H561l0,0h0.85l0.85,0.85l31.45,34.85
					h15.3V368.8H608.6z"/>
				<path d="M610.3,367.1v58.65h-17.851L561,390.05l0,0v35.7H543.15V367.1H561l32.3,35.7l0,0v-35.7H610.3 M609.449,368.8h-15.3
					v34.851v0.85h-0.85l0,0h-0.851l0,0L561,369.65h-17v56.1h15.3V390.9v-0.85h1.7l0,0l0,0l0,0l31.449,35.7h16.15V368.8H609.449z"/>
			</g>
		</g>
	</g>
</g>
</svg>
