<?xml version="1.0" encoding="utf-8"?>
<!-- Generator: Adobe Illustrator 17.1.0, SVG Export Plug-In . SVG Version: 6.00 Build 0)  -->
<!DOCTYPE svg PUBLIC "-//W3C//DTD SVG 1.1//EN" "http://www.w3.org/Graphics/SVG/1.1/DTD/svg11.dtd">
<svg version="1.1" id="Layer_1" xmlns="http://www.w3.org/2000/svg" xmlns:xlink="http://www.w3.org/1999/xlink" x="0px" y="0px"
	 viewBox="0 0 72 72" enable-background="new 0 0 72 72" xml:space="preserve">
<g>
	<path fill="#F15822" d="M59.1,42L59.1,42c2.7-4.2,4.2-9.2,4.2-14.6C63.4,12.3,51.1,0,36,0S8.6,12.3,8.6,27.4
		c0,5.4,1.6,10.4,4.2,14.6h0l0,0c0.9,1.4,1.9,2.7,3,3.9L36,72l20.1-26.1C57.2,44.7,58.2,43.4,59.1,42L59.1,42z"/>
	<g>
		<circle fill="#FFFFFF" cx="36" cy="17.2" r="6.2"/>
		<path fill="#FFFFFF" d="M45.7,42.9V32c0-3.2-2.6-5.7-5.7-5.7h-7.9c-3.2,0-5.7,2.6-5.7,5.7v10.9H45.7z"/>
	</g>
</g>
</svg>
